<?xml version="1.0" encoding="UTF-8" standalone="no"?>
<!DOCTYPE svg PUBLIC "-//W3C//DTD SVG 1.0//EN" "http://www.w3.org/TR/2001/REC-SVG-20010904/DTD/svg10.dtd">
<svg xmlns="http://www.w3.org/2000/svg" width="100%" height="100%">
<defs>
<font id="movistarheadlinebold" horiz-adv-x="575"><font-face font-family="Movistar Headline" units-per-em="1000" panose-1="2 0 8 3 5 0 0 2 0 4" ascent="1000" descent="-250" alphabetic="0"/>
<missing-glyph horiz-adv-x="642" d="M86 660H556V0H86V660ZM480 612H160L321 372L480 612ZM510 90V570L350 331L510 90ZM480 49L321 288L160 49H480ZM134 90L293 331L134 570V90Z"/>
<glyph unicode=" " glyph-name="space" horiz-adv-x="225"/>
<glyph unicode="!" glyph-name="exclam" horiz-adv-x="290" d="M221 55Q221 17 203 2T148 -14H141Q105 -14 87 1T68 55V67Q68 105 86 120T141 136H148Q184 136 202 121T221 67V55ZM89 214L67 684H217L195 225Q195 214 184 214H89Z"/>
<glyph unicode="&quot;" glyph-name="quotedbl" horiz-adv-x="477" d="M79 420L64 658Q61 684 98 684H201L186 434Q184 424 181 422T166 420H79ZM293 420L278 658Q275 684 312 684H415L400 434Q398 424 395 422T380 420H293Z"/>
<glyph unicode="#" glyph-name="numbersign" horiz-adv-x="596" d="M385 0H278L314 204H224L186 0H79L117 204H53V295H133L150 389H53V480H174L212 684H319L281 480H373L411 684H518L480 480H542V389H456L440 295H543V204H423L385 0ZM332 295L349 389H257L241 295H332Z"/>
<glyph unicode="$" glyph-name="dollar" horiz-adv-x="616" d="M70 497Q70 542 83 575T122 633Q172 683 274 694V800H374V695Q414 692 450 686T509 671Q526 665 530 659T535 637V497H434Q428 510 423 535T415 580Q376 586 328 586Q298 586 273 581T231 561Q210 543 210 509Q210 474 232 456T309 421L387 398Q438 383 473 365T531 321Q572 274 572 195Q572 151 559 115T519 53Q471 3 374 -10V-128H274V-13Q229 -11 186 -6T114 7Q94 12 89 21T83 47V189H188Q194 177 199 152T207 108Q221 103 250 101T307 98Q379 98 409 125Q432 145 432 182Q432 216 412 234T346 266L256 292Q210 306 176 322T119 360Q96 383 83 417T70 497Z"/>
<glyph unicode="%" glyph-name="percent" horiz-adv-x="999" d="M378 -14H255L620 697H743L378 -14ZM408 489Q408 388 364 334T228 280Q137 280 94 334T50 489Q50 589 93 643T228 697Q319 697 363 643T408 489ZM291 489Q291 543 278 572T228 602Q191 602 179 573T166 489Q166 434 178 405T228 375Q265 375 278 404T291 489ZM949 194Q949 94 905 40T770 -14Q679 -14 635 40T591 194Q591 295 635 349T770 403Q861 403 905 349T949 194ZM833 194Q833 249 820 278T770 308Q732 308 720 279T708 194Q708 140 720 111T770 81Q807 81 820 110T833 194Z"/>
<glyph unicode="&amp;" glyph-name="ampersand" horiz-adv-x="755" d="M466 542Q466 492 434 450T344 381L499 217Q522 262 534 323T546 455Q546 475 554 481T583 488H718V397H640Q635 323 618 258T570 142L614 95H709V4Q698 2 684 1T654 -2T624 -5T599 -6Q570 -6 551 3T511 34L492 53Q450 21 397 4T279 -14Q226 -14 182 0T105 40T55 103T37 188Q37 254 76 301T181 377Q141 421 126 457T110 532Q110 569 123 599T160 651T217 685T292 697Q372 697 419 655T466 542ZM236 320Q207 299 191 270T175 206Q175 158 206 128T299 98Q331 98 364 106T419 129L236 320ZM228 540Q228 518 239 499T269 460L291 436L302 445Q329 467 343 489T358 539Q358 566 342 582T293 598Q263 598 246 582T228 540Z"/>
<glyph unicode="'" glyph-name="quotesingle" horiz-adv-x="263" d="M79 420L64 658Q61 684 98 684H201L186 434Q184 424 181 422T166 420H79Z"/>
<glyph unicode="(" glyph-name="parenleft" horiz-adv-x="359" d="M41 260Q41 415 100 541T282 748L348 673Q315 639 288 598T240 506T209 394T198 260Q198 187 209 126T240 15T287 -77T348 -152L282 -227Q160 -146 101 -21T41 260Z"/>
<glyph unicode=")" glyph-name="parenright" horiz-adv-x="359" d="M318 260Q318 105 259 -20T77 -227L11 -152Q44 -118 71 -77T119 14T150 126T161 260Q161 333 150 394T119 505T72 597T11 672L77 747Q199 666 258 541T318 260Z"/>
<glyph unicode="*" glyph-name="asterisk" horiz-adv-x="460" d="M147 289L75 349L171 466L28 506L64 594L193 538L182 684H275L267 538L396 594L432 506L289 466L385 349L313 289L230 416L147 289Z"/>
<glyph unicode="+" glyph-name="plus" horiz-adv-x="535" d="M315 277V137H221V277H81V371H221V511H315V371H455V277H315Z"/>
<glyph unicode="," glyph-name="comma" horiz-adv-x="239" d="M42 61Q42 97 60 116T115 136H122Q158 136 177 117T197 59V34Q197 -19 194 -64T181 -135Q177 -147 168 -153T142 -159H101V-17Q68 -6 55 11T42 60V61Z"/>
<glyph unicode="-" glyph-name="hyphen" horiz-adv-x="334" d="M46 200V319H288V200H46Z"/>
<glyph unicode="." glyph-name="period" horiz-adv-x="239" d="M196 55Q196 17 178 2T123 -14H116Q80 -14 62 1T43 55V67Q43 105 61 120T116 136H123Q159 136 177 121T196 67V55Z"/>
<glyph unicode="/" glyph-name="slash" horiz-adv-x="480" d="M153 -14H26L327 697H454L153 -14Z"/>
<glyph unicode="0" glyph-name="zero" horiz-adv-x="592" d="M409 341Q409 412 403 459T383 533T348 572T296 584Q266 584 245 573T210 534T190 459T183 341Q183 270 189 224T209 149T244 110T296 99Q326 99 347 110T382 149T402 223T409 341ZM558 341Q558 253 544 187T499 76T417 9T296 -14Q225 -14 175 8T94 75T48 186T34 341Q34 429 48 495T93 607T175 674T296 697Q367 697 417 675T498 607T544 496T558 341Z"/>
<glyph unicode="1" glyph-name="one" horiz-adv-x="426" d="M404 99V0H46V99H163V585H52V682Q67 684 88 686T131 690T176 693T217 694Q268 694 286 679T305 626V99H404Z"/>
<glyph unicode="2" glyph-name="two" horiz-adv-x="512" d="M178 102H357Q357 113 358 126T360 153T362 176T365 189H468V18Q468 6 461 3T430 0H26Q24 6 23 21T22 44Q22 78 36 105T86 174L202 306Q234 342 254 368T287 416T304 455T309 495Q309 541 283 562Q265 577 236 581T169 585H41V678Q59 682 81 685T127 691T174 695T218 697Q280 697 327 684T406 642Q458 595 458 513Q458 475 450 444T423 382T377 318T309 242L178 102Z"/>
<glyph unicode="3" glyph-name="three" horiz-adv-x="533" d="M308 405Q399 391 446 340T493 207Q493 161 479 120T431 47Q400 18 346 2T223 -14Q176 -14 129 -10T49 2V99H174Q223 99 260 103T321 132Q345 156 345 200Q345 251 316 275Q298 290 269 295T192 300H143Q141 308 141 319T140 339Q140 356 146 372T171 410L322 582H145Q144 568 141 548T134 517H34V666Q34 678 41 681T72 684H465Q469 678 470 665T472 635Q472 604 460 579T423 528L308 405Z"/>
<glyph unicode="4" glyph-name="four" horiz-adv-x="571" d="M31 157Q29 162 28 172T27 192Q27 213 31 238T48 296L175 650Q182 670 190 677T219 684H326L175 264H329V427H472V264H548V157H472V0H329V157H31Z"/>
<glyph unicode="5" glyph-name="five" horiz-adv-x="532" d="M364 517Q360 528 357 548T353 582H190L188 417H233Q370 417 431 368T492 209Q492 100 431 43T235 -14Q190 -14 144 -10T61 2V99H195Q276 99 310 122T344 202Q344 232 338 252T316 284T275 301T211 306H107Q75 306 68 311T60 331L65 684H426Q450 684 457 681T464 666V517H364V517Z"/>
<glyph unicode="6" glyph-name="six" horiz-adv-x="564" d="M195 409Q279 438 343 438Q434 438 483 385T533 225Q533 113 473 50T292 -14Q223 -14 176 7T100 69T59 170T46 310V329Q46 524 119 610T341 697Q376 697 415 692T480 678V585H379Q328 585 294 578T236 550Q214 530 205 495T195 409ZM193 282Q193 184 214 140T297 95Q345 95 369 127T393 220Q393 282 369 306T283 330Q263 330 239 328T193 320V282Z"/>
<glyph unicode="7" glyph-name="seven" horiz-adv-x="520" d="M141 579Q141 567 140 553T138 526T136 501T133 486H30V666Q30 678 37 681T69 684H495Q499 678 500 665T502 635Q502 604 496 579T478 521L292 37Q287 25 283 18T274 6T260 1T238 0H119L369 579H141Z"/>
<glyph unicode="8" glyph-name="eight" horiz-adv-x="562" d="M526 188Q526 93 461 40T278 -14Q217 -14 172 0T96 39T51 98T36 171Q36 234 67 276T151 346Q101 378 80 415T59 505Q59 549 75 584T120 645T189 683T280 697Q330 697 370 685T437 650T480 595T495 524Q495 475 468 435T397 367Q467 332 496 292T526 188ZM177 183Q177 144 203 121T280 97Q331 97 357 120T384 177Q384 192 380 205T364 230T334 254T284 280L240 300Q211 274 194 245T177 183ZM365 511Q365 545 343 567T279 589Q244 589 219 571T193 518Q193 489 214 466T286 419L301 412Q330 434 347 459T365 511Z"/>
<glyph unicode="9" glyph-name="nine" horiz-adv-x="564" d="M369 274Q285 245 221 245Q130 245 81 298T31 458Q31 570 91 633T272 697Q341 697 388 676T464 614T505 513T518 373V354Q518 159 445 73T223 -14Q188 -14 149 -9T84 5V98H185Q236 98 270 105T328 133Q350 153 359 188T369 274ZM371 401Q371 499 350 543T267 588Q219 588 195 556T171 463Q171 401 195 377T281 353Q301 353 325 355T371 363V401Z"/>
<glyph unicode=":" glyph-name="colon" horiz-adv-x="239" d="M196 335Q196 298 178 282T123 266H116Q80 266 62 282T43 335V348Q43 385 61 400T116 416H123Q159 416 177 401T196 348V335ZM196 55Q196 17 178 2T123 -14H116Q80 -14 62 1T43 55V67Q43 105 61 120T116 136H123Q159 136 177 121T196 67V55Z"/>
<glyph unicode=";" glyph-name="semicolon" horiz-adv-x="239" d="M196 334Q196 297 178 282T123 266H116Q80 266 62 281T43 334V347Q43 385 61 400T116 416H123Q159 416 177 401T196 347V334ZM43 61Q43 97 61 116T116 136H123Q159 136 178 117T198 59V34Q198 -19 195 -64T182 -135Q178 -147 169 -153T143 -159H102V-17Q69 -6 56 11T43 60V61Z"/>
<glyph unicode="&lt;" glyph-name="less" horiz-adv-x="535" d="M81 278V370L455 555V449L186 325L455 205V93L81 278Z"/>
<glyph unicode="=" glyph-name="equal" horiz-adv-x="535" d="M81 373V467H455V373H81ZM455 275V181H81V275H455Z"/>
<glyph unicode="&gt;" glyph-name="greater" horiz-adv-x="535" d="M81 93V205L350 325L81 449V555L455 370V278L81 93Z"/>
<glyph unicode="?" glyph-name="question" horiz-adv-x="438" d="M30 678Q65 686 108 691T194 697Q254 697 298 683T367 643Q412 598 412 519Q412 481 402 453T375 402T339 358T301 317T269 271T248 215H169Q155 215 151 222T146 246Q146 264 152 282T168 318T189 352T211 384Q231 411 245 438T260 501Q260 539 240 559Q226 572 205 576T150 581H30V678ZM276 55Q276 17 258 2T203 -14H196Q160 -14 142 1T123 55V67Q123 105 141 120T196 136H203Q239 136 257 121T276 67V55Z"/>
<glyph unicode="@" glyph-name="at" horiz-adv-x="801" d="M455 313H407Q375 313 360 305T345 274Q345 255 356 245T396 234Q411 234 426 237T455 245V313ZM455 388Q455 421 443 432Q436 439 423 441T388 443H279V515Q290 518 306 521T339 526T373 529T401 531Q480 531 516 500T553 391V232Q558 231 564 231T576 231Q616 231 634 262T653 354Q653 472 591 537T405 603Q283 603 215 536T147 344Q147 279 164 228T220 143Q257 109 313 92T455 75H627V12Q586 2 533 -6T417 -14Q331 -14 263 7T146 71Q95 116 67 182T38 339Q38 420 63 486T135 599T251 671T407 697Q491 697 555 672T663 604T729 501T752 374Q752 326 742 285T708 213T650 165T564 147Q530 147 503 156T465 182Q446 168 419 159T363 149Q310 149 277 179T243 266Q243 332 280 360T392 388H455Z"/>
<glyph unicode="A" glyph-name="A" horiz-adv-x="693" d="M410 99H470L437 198H214L182 99H245V0H2V99H60L267 684H379Q404 684 413 680T428 659L632 99H691V0H410V99ZM248 298H403L325 534L248 298Z"/>
<glyph unicode="B" glyph-name="B" horiz-adv-x="665" d="M50 99H118V585H50V684H345Q412 684 460 672T540 627Q559 607 569 579T580 512Q580 464 555 428T486 371Q551 357 590 315T629 203Q629 152 615 116T573 56Q540 27 489 14T358 0H50V99ZM268 99H334Q383 99 409 106T450 129Q474 155 474 200Q474 253 447 279Q432 293 409 299T344 305H268V99ZM268 405H330Q359 405 377 410T406 427Q431 451 431 497Q431 541 409 563Q397 575 377 580T326 585H268V405Z"/>
<glyph unicode="C" glyph-name="C" horiz-adv-x="602" d="M545 3Q527 -2 505 -5T460 -10T413 -13T370 -14Q284 -14 223 7T123 69Q81 115 62 183T42 342Q42 431 62 499T125 612Q168 658 228 677T361 697Q406 697 451 691T529 677Q546 673 552 666T558 641V494H451Q446 507 440 532T432 578Q415 580 398 581T363 583Q327 583 297 574T244 537Q219 507 208 459T197 345Q197 285 208 234T245 153Q266 130 302 117T404 104H545V3Z"/>
<glyph unicode="D" glyph-name="D" horiz-adv-x="721" d="M50 0V99H118V585H50V684H325Q422 684 488 667T597 607Q638 567 658 503T679 345Q679 251 659 185T597 77Q559 38 499 19T347 0H50ZM268 101H337Q443 101 486 162Q507 193 515 237T523 345Q523 418 512 464T474 538Q451 563 414 573T319 583H268V101Z"/>
<glyph unicode="E" glyph-name="E" horiz-adv-x="644" d="M484 99Q484 109 486 123T490 151T496 178T503 197H600V18Q600 6 594 3T561 0H50V99H118V585H50V684H555Q580 684 587 681T594 666V489H497Q494 496 491 508T485 533T480 561T478 585H268V400H432Q450 400 455 398T461 387V294H268V99H484Z"/>
<glyph unicode="F" glyph-name="F" horiz-adv-x="602" d="M268 585V400H427Q445 400 450 398T456 387V294H268V99H348V0H50V99H118V585H50V684H543Q568 684 575 681T582 666V489H485Q482 496 479 508T473 533T468 561T466 585H268Z"/>
<glyph unicode="G" glyph-name="G" horiz-adv-x="693" d="M379 346H593Q613 346 618 340T623 318V0H514Q509 4 502 14T490 33Q460 13 418 0T326 -14Q187 -14 115 78T42 340Q42 428 66 498T135 613Q178 657 240 677T385 697Q406 697 431 696T480 691T525 684T562 676Q579 671 585 664T591 639V494H483Q475 508 470 533T463 579Q425 585 383 585Q341 585 310 575T256 542Q197 485 197 341Q197 217 237 160T368 102Q403 102 428 107T474 123V247H379V346Z"/>
<glyph unicode="H" glyph-name="H" horiz-adv-x="777" d="M727 0H441V99H509V294H268V99H336V0H50V99H118V585H50V684H336V585H268V400H509V585H441V684H727V585H659V99H727V0Z"/>
<glyph unicode="I" glyph-name="I" horiz-adv-x="390" d="M120 585H52V684H338V585H270V99H338V0H52V99H120V585Z"/>
<glyph unicode="J" glyph-name="J" horiz-adv-x="479" d="M158 104Q184 104 200 108T228 124Q247 146 247 199V585H84V684H397V196Q397 131 386 94T348 30Q303 -14 199 -14Q165 -14 121 -9T42 3V104H158Z"/>
<glyph unicode="K" glyph-name="K" horiz-adv-x="717" d="M268 384L504 647Q524 670 541 677T588 684H690V585H600L423 406L622 99H702V2Q674 -1 639 -3T581 -6Q557 -6 541 -3T514 8T493 28T473 56L322 302L268 244V99H337V0H50V99H118V585H50V684H337V585H268V384Z"/>
<glyph unicode="L" glyph-name="L" horiz-adv-x="611" d="M50 0V99H118V585H50V684H337V585H268V99H465Q465 109 467 123T471 151T477 178T484 197H581V18Q581 6 575 3T542 0H50Z"/>
<glyph unicode="M" glyph-name="M" horiz-adv-x="908" d="M858 684V585H790V99H858V0H585V99H653V392L507 152H412Q398 152 392 156T379 170L243 397V99H312V0H50V99H118V585H50V684H173Q203 684 216 676T241 647L457 275L670 647Q676 658 682 665T696 677T714 682T741 684H858Z"/>
<glyph unicode="N" glyph-name="N" horiz-adv-x="789" d="M559 225V585H491V684H751V585H682V0H568L242 437V99H310V0H50V99H119V585H50V684H172Q187 684 197 683T214 678T228 668T241 653L559 225Z"/>
<glyph unicode="O" glyph-name="O" horiz-adv-x="686" d="M644 341Q644 167 570 77T343 -14Q191 -14 117 76T42 341Q42 515 116 606T343 697Q495 697 569 606T644 341ZM489 341Q489 465 455 522T343 579Q266 579 232 522T197 341Q197 217 231 161T343 104Q420 104 454 160T489 341Z"/>
<glyph unicode="P" glyph-name="P" horiz-adv-x="647" d="M337 99V0H50V99H118V585H50V684H341Q422 684 476 673T565 633Q593 609 607 571T621 476Q621 426 611 385T574 313T503 266T393 249Q378 249 361 250T327 253T294 257T268 262V99H337ZM268 353H355Q387 353 406 358T440 377Q454 392 461 415T469 474Q469 534 442 560Q416 585 346 585H268V353Z"/>
<glyph unicode="Q" glyph-name="Q" horiz-adv-x="686" d="M644 341Q644 241 616 169T539 51Q587 52 630 44T711 20Q708 7 702 -12T688 -52T672 -90T657 -117L454 -31Q439 -25 429 -22T408 -17T385 -15T355 -14H343Q191 -14 117 76T42 341Q42 515 116 606T343 697Q495 697 569 606T644 341ZM489 341Q489 465 455 522T343 579Q266 579 232 522T197 341Q197 217 231 161T343 104Q420 104 454 160T489 341Z"/>
<glyph unicode="R" glyph-name="R" horiz-adv-x="705" d="M330 99V0H50V99H118V585H50V684H351Q434 684 486 672T573 623Q597 597 610 559T623 468Q623 399 591 351T503 277L600 99H671V2Q641 -1 608 -3T554 -6Q513 -6 493 6T456 48L352 253H268V99H330ZM268 353H354Q386 353 407 359T442 379Q471 406 471 470Q471 531 446 558Q432 573 410 579T348 585H268V353Z"/>
<glyph unicode="S" glyph-name="S" horiz-adv-x="597" d="M48 496Q48 541 61 574T100 633Q132 664 183 680T305 697Q330 697 356 695T406 689T452 681T487 671Q504 665 508 659T513 637V497H412Q406 510 401 535T393 580Q354 586 306 586Q276 586 251 581T209 561Q188 543 188 509Q188 474 211 457T287 422L365 399Q416 384 451 366T509 321Q550 274 550 195Q550 151 537 115T497 53Q465 20 412 3T280 -14Q255 -14 229 -13T177 -8T130 -1T92 7Q72 12 67 21T61 47V189H166Q172 177 177 152T185 108Q199 103 228 101T285 98Q357 98 387 125Q410 145 410 182Q410 216 390 233T324 265L234 291Q188 305 154 321T97 359Q74 382 61 416T48 496Z"/>
<glyph unicode="T" glyph-name="T" horiz-adv-x="674" d="M607 684Q632 684 639 681T646 666V486H549Q546 493 543 505T537 532T532 560T530 585H412V99H480V0H194V99H262V585H144Q144 575 142 561T138 532T132 506T125 486H28V666Q28 678 35 681T67 684H607Z"/>
<glyph unicode="U" glyph-name="U" horiz-adv-x="741" d="M514 585H446V684H715V585H646V244Q646 178 630 133T582 55Q514 -14 375 -14Q301 -14 246 2T155 54Q125 84 110 128T94 241V585H26V684H313V585H244V242Q244 200 251 176T279 135Q296 120 321 113T379 105Q412 105 438 112T481 137Q514 168 514 240V585Z"/>
<glyph unicode="V" glyph-name="V" horiz-adv-x="681" d="M615 585L426 0H315Q288 0 277 7T258 38L69 585H0V684H124Q146 684 161 682T186 674T202 657T214 628L365 158L496 585H439V684H681V585H615Z"/>
<glyph unicode="W" glyph-name="W" horiz-adv-x="1008" d="M945 585L785 0H663Q647 0 637 2T621 8T612 20T605 38L508 472L411 0H285Q269 0 259 2T243 8T234 20T227 38L67 585H0V684H131Q152 684 165 682T187 673T201 656T211 628L334 152L429 648Q434 670 443 677T477 684H587L712 141L826 585H767V684H1008V585H945Z"/>
<glyph unicode="X" glyph-name="X" horiz-adv-x="663" d="M52 0Q38 0 38 7T44 22L257 331L107 585H26V684H143Q161 684 173 683T194 677T211 664T227 643L343 451L456 658Q466 675 475 679T503 684H611Q626 684 626 677T620 662L403 352L556 99H637V2Q609 -1 581 -3T530 -6Q506 -6 490 -3T461 8T439 28T420 56L316 232L208 27Q198 8 189 4T159 0H52Z"/>
<glyph unicode="Y" glyph-name="Y" horiz-adv-x="652" d="M70 585H6V684H125Q146 684 159 682T181 673T197 657T212 632L344 389L458 585H405V684H646V585H583L397 278V99H466V0H179V99H247V279L70 585Z"/>
<glyph unicode="Z" glyph-name="Z" horiz-adv-x="611" d="M569 26Q569 12 564 6T541 0H49Q47 5 46 15T45 34Q45 64 52 89T79 143L392 585H165Q163 576 160 563T154 535T145 508T136 486H44V658Q44 672 49 678T72 684H563Q565 679 566 669T567 650Q567 620 561 596T533 541L225 99H452Q457 123 465 154T481 203H569V26Z"/>
<glyph unicode="[" glyph-name="bracketleft" horiz-adv-x="372" d="M97 -207V727H350V627H244V-107H350V-207H97Z"/>
<glyph unicode="\" glyph-name="backslash" horiz-adv-x="480" d="M26 697H153L454 -14H327L26 697Z"/>
<glyph unicode="]" glyph-name="bracketright" horiz-adv-x="372" d="M22 -207V-107H128V627H22V727H275V-207H22Z"/>
<glyph unicode="^" glyph-name="asciicircum" horiz-adv-x="535" d="M365 379L268 578L168 379H53L228 685H307L483 379H365Z"/>
<glyph unicode="_" glyph-name="underscore" horiz-adv-x="430" d="M0 -125V-28H430V-125H0Z"/>
<glyph unicode="`" glyph-name="grave" horiz-adv-x="446" d="M302 572L91 714L142 785Q162 814 192 787L354 636L302 572Z"/>
<glyph unicode="a" glyph-name="a" horiz-adv-x="559" d="M340 211H259Q213 211 194 195Q178 181 178 153Q178 125 194 110T250 94Q271 94 296 97T340 106V211ZM422 -4Q390 -4 373 3T347 28Q318 8 282 -3T210 -14Q172 -14 140 -3T87 28Q40 72 40 147Q40 180 50 209T81 258Q107 283 150 293T261 303H340V333Q340 367 325 381Q314 390 298 393T254 397H94V485Q112 489 135 492T183 498T232 502T280 504Q328 504 368 494T435 461Q458 440 468 410T479 332V93H541V5Q527 3 511 2T478 -1T447 -3T422 -4Z"/>
<glyph unicode="b" glyph-name="b" horiz-adv-x="566" d="M211 115Q229 107 253 103T301 98Q324 98 340 105T366 129T382 176T387 250Q387 289 382 316T367 359T339 382T297 389Q279 389 255 386T211 377V115ZM211 461Q285 504 355 504Q403 504 436 485T491 431T522 349T532 248Q532 176 518 126T479 45T419 0T343 -14Q305 -14 265 1T196 36Q192 27 185 16T173 0H72V627H6V714Q21 716 38 717T71 720T103 723T129 724Q177 724 194 707T211 649V461Z"/>
<glyph unicode="c" glyph-name="c" horiz-adv-x="503" d="M462 93V5Q427 -3 382 -8T295 -14Q227 -14 181 3T102 52Q67 86 50 134T33 243Q33 370 101 437T289 504Q307 504 327 503T368 498T407 492T440 484Q460 478 464 470T468 448V323H364Q360 335 357 347Q354 358 352 371T348 396Q337 398 322 398T296 399Q230 399 204 361T178 248Q178 206 186 180T208 135Q225 114 254 104T333 93H462Z"/>
<glyph unicode="d" glyph-name="d" horiz-adv-x="579" d="M495 93H557V6Q543 4 527 2T494 -1T462 -3T437 -4Q404 -4 387 4T361 31Q336 12 302 -1T229 -14Q188 -14 153 -1T91 44T50 125T34 247Q34 306 47 353T85 434T148 486T232 504Q265 504 296 495T356 470V627H290V714Q305 716 322 717T355 720T387 723T413 724Q461 724 478 707T495 649V93ZM356 384Q337 387 319 389T282 392Q231 392 205 357T179 241Q179 159 204 128T276 96Q296 96 317 99T356 109V384Z"/>
<glyph unicode="e" glyph-name="e" horiz-adv-x="533" d="M179 201Q181 180 187 160T208 125Q225 109 253 101T330 93H475V5Q440 -2 391 -8T293 -14Q224 -14 177 3T98 50Q62 85 48 135T33 245Q33 303 47 350T91 432T165 485T271 504Q383 504 439 441T496 257V212Q496 201 486 201H179ZM360 294Q358 341 337 368T270 396Q224 396 203 369T179 294H360Z"/>
<glyph unicode="f" glyph-name="f" horiz-adv-x="353" d="M349 490V397H232V0H93V397H10V479L93 491V557Q93 603 103 634T134 687Q154 708 185 720T268 732Q295 732 326 730T381 724V627H330Q295 627 277 624T248 611Q240 603 236 590T232 550V490H349Z"/>
<glyph unicode="g" glyph-name="g" horiz-adv-x="532" d="M50 316Q50 414 108 459T270 504Q294 504 318 501L366 623Q395 616 425 603T477 573L406 474Q445 452 467 414T489 316Q489 217 432 172T270 127Q231 127 198 133V88H305Q367 88 411 79T484 40Q502 22 512 -5T523 -69Q523 -117 505 -149T453 -202T373 -230T272 -239H271Q143 -239 87 -204T31 -110Q31 -78 48 -52T91 -9Q63 10 63 49Q63 75 81 105T128 160Q91 183 71 221T50 316ZM362 316Q362 358 341 380T270 403Q220 403 199 381T177 316Q177 273 198 251T270 228Q319 228 340 250T362 316ZM163 -27V-50Q163 -76 166 -89T178 -111Q200 -132 272 -132H282Q339 -132 363 -119T387 -78Q387 -52 370 -40T305 -27H163Z"/>
<glyph unicode="h" glyph-name="h" horiz-adv-x="604" d="M211 456Q244 478 287 491T373 504Q411 504 439 492T487 458Q524 417 524 339V93H586V5Q557 1 522 -1T466 -4Q419 -4 402 13T385 72V320Q385 354 369 369Q359 378 343 381T307 384Q284 384 259 382T211 375V0H72V627H6V714Q21 716 38 717T71 720T103 723T129 724Q177 724 194 707T211 649V456Z"/>
<glyph unicode="i" glyph-name="i" horiz-adv-x="295" d="M229 0H90V397H24V484Q39 486 56 487T89 490T121 493T147 494Q195 494 212 477T229 419V0ZM229 640Q229 603 211 588T156 572H149Q112 572 94 587T76 640V653Q76 690 94 706T149 722H156Q192 722 210 706T229 653V640Z"/>
<glyph unicode="j" glyph-name="j" horiz-adv-x="295" d="M229 -60Q229 -106 219 -137T188 -190Q149 -229 75 -229Q49 -229 18 -226T-39 -216V-124H10Q36 -124 51 -120T76 -107Q84 -98 87 -84T90 -47V397H24V484Q39 486 56 488T90 491T122 493T147 494Q195 494 212 477T229 418V-60ZM229 641Q229 603 211 588T156 572H149Q112 572 94 587T76 641V653Q76 691 94 706T149 722H156Q192 722 210 707T229 653V641Z"/>
<glyph unicode="k" glyph-name="k" horiz-adv-x="566" d="M211 300L338 453Q355 474 371 479T414 485H524V397H442L357 311L498 93H566V8Q547 3 516 0T463 -4Q445 -4 432 -2T409 8T389 25T369 53L261 221L211 172V0H72V627H6V714Q21 716 38 717T71 720T103 723T129 724Q177 724 194 707T211 649V300Z"/>
<glyph unicode="l" glyph-name="l" horiz-adv-x="275" d="M211 0H72V627H6V714Q21 716 38 717T71 720T103 723T129 724Q177 724 194 707T211 649V0Z"/>
<glyph unicode="m" glyph-name="m" horiz-adv-x="889" d="M143 494Q179 494 197 485T224 455Q291 504 374 504Q409 504 440 491T492 450Q529 478 573 491T663 504Q697 504 725 492T772 458Q791 437 800 407T809 339V93H871V5Q842 1 807 -2T751 -5Q704 -5 687 13T670 71V320Q670 353 654 369Q644 378 628 381T592 384Q574 384 554 382T517 377Q520 359 520 337V0H381V320Q381 354 365 369Q355 378 339 381T304 384Q287 384 266 383T227 377V0H88V397H19V484Q48 489 82 491T143 494Z"/>
<glyph unicode="n" glyph-name="n" horiz-adv-x="620" d="M602 93V5Q588 3 572 2T539 -1T507 -4T482 -5Q435 -5 418 13T401 71V320Q401 354 385 369Q375 378 359 381T323 384Q300 384 274 382T227 374V0H88V397H19V484Q48 489 83 491T144 494Q181 494 199 484T225 453Q258 476 301 490T389 504Q427 504 455 492T504 458Q540 416 540 339V93H602Z"/>
<glyph unicode="o" glyph-name="o" horiz-adv-x="560" d="M527 245Q527 186 512 138T467 57T390 5T280 -14Q217 -14 171 4T94 56T48 138T33 245Q33 304 48 352T93 433T170 485T280 504Q343 504 389 486T466 434T512 352T527 245ZM382 245Q382 321 359 358T280 395Q225 395 202 358T178 245Q178 169 201 132T280 95Q335 95 358 132T382 245Z"/>
<glyph unicode="p" glyph-name="p" horiz-adv-x="582" d="M225 454Q258 477 296 490T371 504Q419 504 452 485T507 431T538 350T548 249Q548 177 534 127T495 45T435 0T359 -14Q326 -14 291 -3T227 26V-225H88V397H19V485Q48 489 83 491T144 494Q181 494 199 485T225 454ZM227 115Q245 107 269 103T317 99Q340 99 356 106T382 130T398 177T403 251Q403 290 398 316T383 359T355 382T313 389Q295 389 271 385T227 375V115Z"/>
<glyph unicode="q" glyph-name="q" horiz-adv-x="561" d="M356 22Q328 6 293 -4T226 -14Q132 -14 83 51T34 247Q34 368 86 436T232 504Q270 504 304 493T374 462Q378 470 383 477T394 490H495V-132H560V-220Q546 -222 529 -223T495 -226T463 -228T437 -229Q390 -229 373 -212T356 -153V22ZM276 96Q294 96 316 99T356 110V383Q342 387 322 389T284 392Q229 392 204 358T179 248Q179 204 185 175T204 129T235 104T276 96Z"/>
<glyph unicode="r" glyph-name="r" horiz-adv-x="387" d="M224 450Q253 475 285 489T352 504Q367 504 373 502T379 490V380H326Q297 380 275 378T227 369V0H88V397H19V484Q48 489 82 491T143 494Q180 494 199 485T224 450Z"/>
<glyph unicode="s" glyph-name="s" horiz-adv-x="523" d="M158 154Q161 145 164 134Q166 125 168 114T173 92Q212 86 257 86Q308 86 330 97T352 136Q352 157 338 166T291 181L210 194Q162 202 133 214T87 243Q52 278 52 343Q52 380 64 406T96 453Q125 481 172 492T274 504Q317 504 361 499T433 486Q447 482 451 476T455 458V335H359Q353 348 349 367T343 401Q327 403 307 403T266 404Q183 404 183 357Q183 336 196 325T249 308L326 296Q375 288 402 277T448 247Q483 210 483 147Q483 70 426 28T260 -14Q197 -14 151 -10T81 3Q67 8 64 16T61 35V154H158Z"/>
<glyph unicode="t" glyph-name="t" horiz-adv-x="382" d="M2 479L85 491V599Q117 609 154 614T224 620V490H340V397H224V168Q224 147 226 133T235 110T256 97T294 93H364V2Q352 -2 336 -5T303 -10T267 -13T232 -14Q151 -14 118 26T85 148V397H2V479Z"/>
<glyph unicode="u" glyph-name="u" horiz-adv-x="611" d="M472 -4Q436 -4 418 6T394 38Q361 14 318 0T231 -14Q193 -14 165 -2T117 32Q98 53 89 83T80 151V397H18V485Q47 489 82 491T138 494Q185 494 202 477T219 419V170Q219 137 235 121Q245 112 261 109T298 106Q320 106 344 108T391 116V397H332V490H530V93H592V6Q577 4 561 2T528 -1T497 -3T472 -4Z"/>
<glyph unicode="v" glyph-name="v" horiz-adv-x="560" d="M335 485H565V397H510L360 0H258Q242 0 232 2T215 9T203 23T193 46L64 397H-5V485Q8 486 23 487T54 490T84 491T110 492Q131 492 145 490T170 481T186 463T199 436L304 130L390 397H335V485Z"/>
<glyph unicode="w" glyph-name="w" horiz-adv-x="826" d="M424 361L348 0H238Q206 0 194 10T173 46L63 397H-5V485Q21 488 55 490T111 492Q154 492 172 479T198 436L276 129L334 444Q339 470 347 477T377 485H507L590 125L660 397H616V485H831V397H775L656 0H551Q519 0 505 10T485 46L424 361Z"/>
<glyph unicode="x" glyph-name="x" horiz-adv-x="537" d="M356 468Q364 483 373 486T405 490H504Q519 490 508 473L347 248L457 93H519V5Q507 4 493 3T464 0T437 -1T416 -2Q399 -2 388 0T367 7T348 21T329 46L256 150L186 22Q179 9 171 5T140 0H35Q18 0 30 17L192 241L82 397H18V485Q30 486 44 487T73 490T100 491T121 492Q137 492 149 490T170 483T188 469T208 444L283 339L356 468Z"/>
<glyph unicode="y" glyph-name="y" horiz-adv-x="596" d="M18 397V485Q47 489 82 491T138 494Q185 494 202 476T219 418V170Q219 137 235 121Q245 112 261 109T298 106Q320 106 344 108T391 116V397H332V490H530V-16Q530 -73 518 -114T479 -183Q425 -239 304 -239Q270 -239 229 -236T156 -224V-135H265Q335 -135 363 -110Q391 -85 391 -22V33Q358 11 316 -1T231 -14Q193 -14 165 -2T117 32Q98 53 89 83T80 151V397H18Z"/>
<glyph unicode="z" glyph-name="z" horiz-adv-x="518" d="M51 0Q49 5 49 13T48 29Q48 57 53 75T71 109L300 399H161Q159 376 155 356T145 326H48V460Q48 479 54 484T77 490H467Q469 485 470 477T471 461Q471 433 465 415T447 381L220 91H366Q368 114 372 138T382 171H478V30Q478 11 472 6T449 0H51Z"/>
<glyph unicode="{" glyph-name="braceleft" horiz-adv-x="393" d="M289 -51Q289 -86 301 -96T348 -107H359V-207H299Q215 -207 179 -168T142 -39V103Q142 160 114 181T26 209V313Q86 319 114 340T142 419V559Q142 649 178 688T299 727H359V627H348Q313 627 301 617T289 571V418Q289 355 264 318T182 261Q239 241 264 204T289 104V-51Z"/>
<glyph unicode="|" glyph-name="bar" horiz-adv-x="252" d="M64 -253V743H188V-253H64Z"/>
<glyph unicode="}" glyph-name="braceright" horiz-adv-x="393" d="M104 104Q104 167 129 204T211 261Q154 281 129 318T104 418V571Q104 606 92 616T45 627H34V727H94Q178 727 214 688T251 559V419Q251 362 279 341T367 313V209Q307 203 279 182T251 103V-39Q251 -129 215 -168T94 -207H34V-107H45Q80 -107 92 -97T104 -51V104Z"/>
<glyph unicode="~" glyph-name="asciitilde" horiz-adv-x="535" d="M488 438Q488 359 455 326T362 293Q336 293 312 301T265 318T222 335T182 343Q144 343 132 287L48 300Q48 377 81 410T174 443Q199 443 223 436T271 419T315 402T354 394Q374 394 386 408T404 449L488 438Z"/>
<glyph unicode=" " glyph-name="nbspace" horiz-adv-x="225"/>
<glyph unicode="¡" glyph-name="exclamdown" horiz-adv-x="290" d="M69 435Q69 473 87 488T142 504H149Q185 504 203 489T222 435V423Q222 385 204 370T149 354H142Q106 354 88 369T69 423V435ZM201 276L223 -194H73L95 265Q95 276 106 276H201Z"/>
<glyph unicode="¢" glyph-name="cent" horiz-adv-x="551" d="M485 93V5Q458 0 426 -5T360 -12V-128H262V-10Q217 -4 184 11T125 52Q90 86 73 134T56 243Q56 355 110 420T262 500V618H360V502Q389 499 416 494T463 484Q483 478 487 470T491 448V323H387Q383 335 380 347Q377 358 375 371T371 396Q360 398 345 398T319 399Q253 399 227 361T201 248Q201 206 209 180T231 135Q248 114 277 104T356 93H485Z"/>
<glyph unicode="£" glyph-name="sterling" horiz-adv-x="633" d="M102 0Q100 10 99 27T97 57Q97 88 107 110T129 153T152 197T162 253Q162 270 160 286T156 320H60V392L143 405Q141 426 139 448T137 495Q137 542 149 576T185 636Q215 668 266 682T381 697Q423 697 465 692T538 681V585H415Q371 585 346 580T306 560Q282 539 282 489Q282 469 283 449T287 409H444V320H300Q302 303 303 288T304 258Q304 213 287 175T235 102H464Q464 114 465 128T467 155T469 179T472 195H573V18Q573 6 566 3T534 0H102Z"/>
<glyph unicode="¤" glyph-name="currency" horiz-adv-x="596" d="M501 341Q501 282 477 239L547 170L475 97L401 172Q357 151 298 151Q238 151 195 172L121 97L49 170L119 239Q95 282 95 341Q95 399 119 443L49 512L121 585L195 510Q238 531 298 531Q357 531 401 510L475 585L547 512L477 443Q501 399 501 341ZM372 341Q372 386 353 408T298 430Q263 430 244 408T224 341Q224 296 243 274T298 252Q333 252 352 274T372 341Z"/>
<glyph unicode="¥" glyph-name="yen" horiz-adv-x="634" d="M239 218V256H113V338H209L84 585H30V684H136Q156 684 169 683T191 676T208 660T225 632L336 389L428 585H384V684H604V585H553L421 338H515V256H389V218H515V137H389V99H457V0H170V99H239V137H113V218H239Z"/>
<glyph unicode="¦" glyph-name="brokenbar" horiz-adv-x="252" d="M64 357V743H188V357H64ZM64 -253V133H188V-253H64Z"/>
<glyph unicode="§" glyph-name="section" horiz-adv-x="599" d="M193 154Q196 145 199 135Q201 127 203 116T208 94Q228 91 248 89T288 87Q340 87 362 98Q381 110 381 132Q381 153 367 163T320 178L233 193Q149 206 118 243T86 342Q86 372 95 396T119 437Q86 474 86 536Q86 572 98 598T130 645Q159 673 206 685T308 697Q351 697 392 692T462 678Q476 674 480 668T484 651V528H388Q382 541 378 559T372 592Q356 594 338 595T300 596Q265 596 242 587T218 550Q218 530 230 519T284 500L369 486Q444 474 478 441T513 340Q513 311 504 287T479 244Q495 226 504 202T513 146Q513 70 459 28T295 -14Q232 -14 185 -9T115 5Q103 9 100 16T96 35V154H193ZM229 387Q223 381 220 374T216 356Q216 336 229 325T284 307L367 293Q383 303 383 326Q383 346 368 356T320 372L229 387Z"/>
<glyph unicode="¨" glyph-name="dieresis" horiz-adv-x="446" d="M188 670Q188 635 170 619T117 603H111Q76 603 59 619T41 670V681Q41 717 58 732T111 748H117Q152 748 170 733T188 681V670ZM404 670Q404 635 387 619T334 603H328Q294 603 276 619T257 670V681Q257 717 275 732T328 748H334Q369 748 386 733T404 681V670Z"/>
<glyph unicode="©" glyph-name="copyright" horiz-adv-x="790" d="M747 342Q747 256 721 190T647 78T536 10T395 -14Q319 -14 255 9T143 78T70 189T43 342Q43 428 69 494T143 606T254 674T395 697Q471 697 535 674T647 606T720 495T747 342ZM645 342Q645 470 582 539T395 608Q272 608 209 539T145 342Q145 214 208 145T395 75Q518 75 581 144T645 342ZM505 176Q488 173 463 171T412 168Q367 168 338 179T289 210Q267 232 257 265T247 343Q247 388 257 419T289 475Q309 498 338 509T410 520Q429 520 451 517T489 510Q509 505 509 486V409H443Q440 419 438 430T434 451Q427 452 419 452T406 453Q368 453 352 428T335 345Q335 317 339 295T355 259Q375 236 429 236H505V176Z"/>
<glyph unicode="ª" glyph-name="ordfeminine" horiz-adv-x="426" d="M243 491H190Q166 491 154 485T141 457Q141 440 151 432T187 423Q198 423 214 425T243 430V491ZM302 347Q261 347 249 367Q230 353 206 347T159 340Q108 340 75 369T41 452Q41 509 76 535T195 562H243V577Q243 600 232 608T189 617H78V684Q105 690 138 694T204 698Q239 698 267 691T315 667Q330 652 337 632T345 577V421H387V353Q367 351 343 349T302 347Z"/>
<glyph unicode="«" glyph-name="guillemotleft" horiz-adv-x="569" d="M36 261Q36 280 45 294T72 328L220 489L286 433L170 261L286 89L220 33L72 194Q54 213 45 227T36 261ZM273 261Q273 280 282 294T309 328L457 489L523 433L407 261L523 89L457 33L309 194Q291 213 282 227T273 261Z"/>
<glyph unicode="¬" glyph-name="logicalnot" horiz-adv-x="535" d="M361 373H81V467H455V181H361V373Z"/>
<glyph unicode="­" glyph-name="uni00AD" horiz-adv-x="334" d="M46 200V319H288V200H46Z"/>
<glyph unicode="®" glyph-name="registered" horiz-adv-x="790" d="M747 342Q747 256 721 190T647 78T536 10T395 -14Q319 -14 255 9T143 78T70 189T43 342Q43 428 69 494T143 606T254 674T395 697Q471 697 535 674T647 606T720 495T747 342ZM645 342Q645 470 582 539T395 608Q272 608 209 539T145 342Q145 214 208 145T395 75Q518 75 581 144T645 342ZM392 236V176H248V236H281V455H248V515H400Q470 515 502 491T534 405Q534 334 478 312L519 236H557V178Q537 176 520 175T495 173Q473 173 463 180T444 202L396 297H364V236H392ZM364 356H397Q427 356 438 368T450 407Q450 435 438 445T397 455H364V356Z"/>
<glyph unicode="¯" glyph-name="macron" horiz-adv-x="446" d="M69 619V721H376V619H69Z"/>
<glyph unicode="°" glyph-name="degree" horiz-adv-x="535" d="M463 507Q463 465 451 431T414 371T353 331T268 317Q220 317 184 331T123 370T86 430T73 507Q73 549 85 583T122 643T183 683T268 697Q316 697 352 683T413 644T450 584T463 507ZM346 507Q346 551 327 576T268 601Q229 601 210 576T190 507Q190 463 209 438T268 413Q307 413 326 438T346 507Z"/>
<glyph unicode="±" glyph-name="plusminus" horiz-adv-x="535" d="M315 330V190H221V330H81V424H221V564H315V424H455V330H315ZM81 0V94H455V0H81Z"/>
<glyph unicode="²" glyph-name="twosuperior" horiz-adv-x="500" d="M228 428H314Q315 441 318 453T326 476H394V372Q394 358 387 353T359 348H110Q108 355 107 367T106 385Q106 407 112 423T140 463L207 536Q244 576 256 597T269 636Q269 652 259 659Q247 667 211 667H115V743Q137 748 171 751T239 755Q321 755 357 721Q384 695 384 652Q384 632 380 615T365 579T335 538T284 484L228 428Z"/>
<glyph unicode="³" glyph-name="threesuperior" horiz-adv-x="500" d="M194 671Q193 658 190 646T182 623H114V727Q114 741 121 746T149 751H383Q391 733 391 714Q391 696 383 679T353 636L304 580Q351 572 377 549T404 475Q404 409 359 376T236 343Q208 343 175 346T122 354V430H218Q259 430 274 440T289 474Q289 500 271 508T214 516H195Q193 524 192 530T191 544Q191 558 196 570T216 600L279 671H194Z"/>
<glyph unicode="´" glyph-name="acute" horiz-adv-x="446" d="M91 636L253 787Q283 814 303 785L354 714L143 572L91 636Z"/>
<glyph unicode="µ" glyph-name="mu" horiz-adv-x="612" d="M19 397V484Q34 486 50 488T83 491T113 493T139 494Q186 494 203 476T220 418V170Q220 136 236 121Q246 112 262 109T299 106Q321 106 345 108T392 115V397H333V490H531V93H593V5Q564 1 529 -2T473 -5Q437 -5 419 5T395 37Q362 13 317 0T220 -14V-225H81V397H19Z"/>
<glyph unicode="¶" glyph-name="paragraph" horiz-adv-x="653" d="M234 322Q149 322 98 368T47 503Q47 547 61 581T99 638T158 672T234 684H603V585H535V-203H422V585H346V-203H234V322Z"/>
<glyph unicode="·" glyph-name="periodcentered" horiz-adv-x="239" d="M196 335Q196 297 178 282T123 266H116Q80 266 62 281T43 335V347Q43 385 61 400T116 416H123Q159 416 177 401T196 347V335Z"/>
<glyph unicode="¸" glyph-name="cedilla" horiz-adv-x="428" d="M238 -49Q262 -59 277 -68T302 -87T314 -110T318 -140Q318 -188 291 -218Q277 -235 252 -243T199 -252Q173 -252 151 -248T110 -237V-173H179Q223 -173 223 -150Q223 -141 216 -134T177 -116L167 -113Q138 -103 125 -91T112 -53Q112 -40 117 -26T132 -1H203Q201 -6 200 -11T199 -21Q199 -29 204 -33T227 -45L238 -49Z"/>
<glyph unicode="¹" glyph-name="onesuperior" horiz-adv-x="500" d="M374 428V348H140V428H212V667H144V746Q155 747 170 748T202 750T233 751T258 752Q294 752 307 741T320 703V428H374Z"/>
<glyph unicode="º" glyph-name="ordmasculine" horiz-adv-x="419" d="M380 518Q380 437 339 389T210 340Q122 340 81 388T39 518Q39 600 80 649T210 698Q298 698 339 649T380 518ZM274 518Q274 567 259 591T210 615Q175 615 161 591T146 518Q146 470 160 447T210 423Q244 423 259 446T274 518Z"/>
<glyph unicode="»" glyph-name="guillemotright" horiz-adv-x="569" d="M296 261Q296 242 287 228T260 194L112 33L46 89L162 261L46 433L112 489L260 328Q278 309 287 295T296 261ZM533 261Q533 242 524 228T497 194L349 33L283 89L399 261L283 433L349 489L497 328Q515 309 524 295T533 261Z"/>
<glyph unicode="¼" glyph-name="onequarter" horiz-adv-x="999" d="M597 86Q595 91 594 98T593 114Q593 129 596 142T607 180L671 373Q677 390 683 395T706 401H794L715 170H787V258H886V170H921V86H886V0H787V86H597ZM368 -14H245L610 697H733L368 -14ZM326 365V285H92V365H164V604H96V683Q107 684 122 685T154 687T185 688T210 689Q246 689 259 678T272 640V365H326Z"/>
<glyph unicode="½" glyph-name="onehalf" horiz-adv-x="999" d="M368 -14H245L610 697H733L368 -14ZM326 365V285H92V365H164V604H96V683Q107 684 122 685T154 687T185 688T210 689Q246 689 259 678T272 640V365H326ZM751 80H837Q838 93 841 105T849 128H917V24Q917 10 910 5T882 0H633Q631 7 630 19T629 37Q629 59 635 75T663 115L730 188Q767 228 779 249T792 288Q792 304 782 311Q770 319 734 319H638V395Q660 400 694 403T762 407Q844 407 880 373Q907 347 907 304Q907 284 903 267T888 231T858 190T807 136L751 80Z"/>
<glyph unicode="¾" glyph-name="threequarters" horiz-adv-x="999" d="M605 86Q603 91 602 98T601 114Q601 129 604 142T615 180L679 373Q685 390 691 395T714 401H802L723 170H795V258H894V170H929V86H894V0H795V86H605ZM387 -14H264L629 697H752L387 -14ZM170 604Q169 591 166 579T158 556H90V660Q90 674 97 679T125 684H359Q367 666 367 647Q367 629 359 612T329 569L280 513Q327 505 353 482T380 408Q380 342 335 309T212 276Q184 276 151 279T98 287V363H194Q235 363 250 373T265 407Q265 433 247 441T190 449H171Q169 457 168 463T167 477Q167 491 172 503T192 533L255 604H170Z"/>
<glyph unicode="¿" glyph-name="questiondown" horiz-adv-x="438" d="M408 -188Q373 -196 330 -201T244 -207Q184 -207 140 -193T71 -153Q26 -108 26 -29Q26 9 36 37T63 88T99 132T137 173T169 219T190 275H269Q283 275 287 268T292 244Q292 226 286 208T270 172T249 138T227 106Q207 79 193 52T178 -11Q178 -49 198 -69Q212 -82 233 -86T288 -91H408V-188ZM162 435Q162 473 180 488T235 504H242Q278 504 296 489T315 435V423Q315 385 297 370T242 354H235Q199 354 181 369T162 423V435Z"/>
<glyph unicode="À" glyph-name="Agrave" horiz-adv-x="693" d="M410 99H470L437 198H214L182 99H245V0H2V99H60L267 684H379Q404 684 413 680T428 659L632 99H691V0H410V99ZM248 298H403L325 534L248 298ZM426 762L215 904L266 975Q286 1004 316 977L478 826L426 762Z"/>
<glyph unicode="Á" glyph-name="Aacute" horiz-adv-x="693" d="M410 99H470L437 198H214L182 99H245V0H2V99H60L267 684H379Q404 684 413 680T428 659L632 99H691V0H410V99ZM248 298H403L325 534L248 298ZM215 826L377 977Q407 1004 427 975L478 904L267 762L215 826Z"/>
<glyph unicode="Â" glyph-name="Acircumflex" horiz-adv-x="693" d="M410 99H470L437 198H214L182 99H245V0H2V99H60L267 684H379Q404 684 413 680T428 659L632 99H691V0H410V99ZM248 298H403L325 534L248 298ZM526 817L474 764L346 866L218 764L166 817L268 935Q283 953 296 960T335 967H357Q383 967 396 960T424 935L526 817Z"/>
<glyph unicode="Ã" glyph-name="Atilde" horiz-adv-x="693" d="M410 99H470L437 198H214L182 99H245V0H2V99H60L267 684H379Q404 684 413 680T428 659L632 99H691V0H410V99ZM248 298H403L325 534L248 298ZM536 933Q536 864 507 827T426 790Q403 790 383 797T343 812T307 827T273 834Q239 834 230 786L156 797Q156 866 185 903T266 940Q289 940 309 933T349 918T385 903T419 896Q453 896 462 944L536 933Z"/>
<glyph unicode="Ä" glyph-name="Adieresis" horiz-adv-x="693" d="M410 99H470L437 198H214L182 99H245V0H2V99H60L267 684H379Q404 684 413 680T428 659L632 99H691V0H410V99ZM248 298H403L325 534L248 298ZM312 860Q312 825 294 809T241 793H235Q200 793 183 809T165 860V871Q165 907 182 922T235 938H241Q276 938 294 923T312 871V860ZM528 860Q528 825 511 809T458 793H452Q418 793 400 809T381 860V871Q381 907 399 922T452 938H458Q493 938 510 923T528 871V860Z"/>
<glyph unicode="Å" glyph-name="Aring" horiz-adv-x="693" d="M410 99H470L437 198H214L182 99H245V0H2V99H60L267 684H379Q404 684 413 680T428 659L632 99H691V0H410V99ZM248 298H403L325 534L248 298ZM342 837Q369 837 382 849T395 891V895Q395 927 382 937T342 948H339Q311 948 298 938T284 895V891Q284 861 297 849T339 837H342ZM344 1017Q404 1017 436 990T469 901V887Q469 826 437 799T344 771H337Q276 771 244 798T211 887V901Q211 963 243 990T337 1017H344Z"/>
<glyph unicode="Æ" glyph-name="AE" horiz-adv-x="1007" d="M847 99Q847 109 849 123T853 150T859 176T866 195H963V18Q963 6 956 3T924 0H414V99H482V198H257L198 99H243V0H2V99H64L400 642Q414 665 426 674T461 684H919Q944 684 951 681T958 666V489H861Q858 496 855 508T849 533T844 561T842 585H632V400H824V294H632V99H847ZM482 298V574L318 298H482Z"/>
<glyph unicode="Ç" glyph-name="Ccedilla" horiz-adv-x="602" d="M414 -49Q438 -59 453 -68T478 -87T490 -110T494 -140Q494 -188 467 -218Q453 -235 428 -243T375 -252Q349 -252 327 -248T286 -237V-173H355Q399 -173 399 -150Q399 -141 392 -134T353 -116L343 -113Q314 -103 301 -91T288 -53Q288 -31 301 -10Q184 5 123 69Q81 115 62 183T42 342Q42 431 62 499T125 612Q168 658 228 677T361 697Q406 697 451 691T529 677Q546 673 552 666T558 641V494H451Q446 507 440 532T432 578Q415 580 398 581T363 583Q327 583 297 574T244 537Q219 507 208 459T197 345Q197 285 208 234T245 153Q266 130 302 117T404 104H545V3Q527 -1 506 -4T463 -9T418 -12T375 -14V-21Q375 -29 380 -33T403 -45L414 -49Z"/>
<glyph unicode="È" glyph-name="Egrave" horiz-adv-x="644" d="M484 99Q484 109 486 123T490 151T496 178T503 197H600V18Q600 6 594 3T561 0H50V99H118V585H50V684H555Q580 684 587 681T594 666V489H497Q494 496 491 508T485 533T480 561T478 585H268V400H432Q450 400 455 398T461 387V294H268V99H484ZM401 762L190 904L241 975Q261 1004 291 977L453 826L401 762Z"/>
<glyph unicode="É" glyph-name="Eacute" horiz-adv-x="644" d="M484 99Q484 109 486 123T490 151T496 178T503 197H600V18Q600 6 594 3T561 0H50V99H118V585H50V684H555Q580 684 587 681T594 666V489H497Q494 496 491 508T485 533T480 561T478 585H268V400H432Q450 400 455 398T461 387V294H268V99H484ZM200 826L362 977Q392 1004 412 975L463 904L252 762L200 826Z"/>
<glyph unicode="Ê" glyph-name="Ecircumflex" horiz-adv-x="644" d="M484 99Q484 109 486 123T490 151T496 178T503 197H600V18Q600 6 594 3T561 0H50V99H118V585H50V684H555Q580 684 587 681T594 666V489H497Q494 496 491 508T485 533T480 561T478 585H268V400H432Q450 400 455 398T461 387V294H268V99H484ZM510 817L458 764L330 866L202 764L150 817L252 935Q267 953 280 960T319 967H341Q367 967 380 960T408 935L510 817Z"/>
<glyph unicode="Ë" glyph-name="Edieresis" horiz-adv-x="644" d="M484 99Q484 109 486 123T490 151T496 178T503 197H600V18Q600 6 594 3T561 0H50V99H118V585H50V684H555Q580 684 587 681T594 666V489H497Q494 496 491 508T485 533T480 561T478 585H268V400H432Q450 400 455 398T461 387V294H268V99H484ZM289 860Q289 825 271 809T218 793H212Q177 793 160 809T142 860V871Q142 907 159 922T212 938H218Q253 938 271 923T289 871V860ZM505 860Q505 825 488 809T435 793H429Q395 793 377 809T358 860V871Q358 907 376 922T429 938H435Q470 938 487 923T505 871V860Z"/>
<glyph unicode="Ì" glyph-name="Igrave" horiz-adv-x="390" d="M120 585H52V684H338V585H270V99H338V0H52V99H120V585ZM533 762L322 904L373 975Q393 1004 423 977L585 826L533 762Z"/>
<glyph unicode="Í" glyph-name="Iacute" horiz-adv-x="390" d="M120 585H52V684H338V585H270V99H338V0H52V99H120V585ZM322 826L484 977Q514 1004 534 975L585 904L374 762L322 826Z"/>
<glyph unicode="Î" glyph-name="Icircumflex" horiz-adv-x="390" d="M120 585H52V684H338V585H270V99H338V0H52V99H120V585ZM633 817L581 764L453 866L325 764L273 817L375 935Q390 953 403 960T442 967H464Q490 967 503 960T531 935L633 817Z"/>
<glyph unicode="Ï" glyph-name="Idieresis" horiz-adv-x="390" d="M120 585H52V684H338V585H270V99H338V0H52V99H120V585ZM419 860Q419 825 401 809T348 793H342Q307 793 290 809T272 860V871Q272 907 289 922T342 938H348Q383 938 401 923T419 871V860ZM635 860Q635 825 618 809T565 793H559Q525 793 507 809T488 860V871Q488 907 506 922T559 938H565Q600 938 617 923T635 871V860Z"/>
<glyph unicode="Ð" glyph-name="Eth" horiz-adv-x="725" d="M44 382L122 391V585H54V684H329Q426 684 492 667T601 607Q642 567 662 503T683 345Q683 251 663 185T601 77Q563 38 503 19T351 0H54V99H122V295H44V382ZM272 399H397V295H272V101H341Q447 101 490 162Q511 193 519 237T527 345Q527 418 516 464T478 538Q455 563 418 573T323 583H272V399Z"/>
<glyph unicode="Ñ" glyph-name="Ntilde" horiz-adv-x="789" d="M559 225V585H491V684H751V585H682V0H568L242 437V99H310V0H50V99H119V585H50V684H172Q187 684 197 683T214 678T228 668T241 653L559 225ZM584 933Q584 864 555 827T474 790Q451 790 431 797T391 812T355 827T321 834Q287 834 278 786L204 797Q204 866 233 903T314 940Q337 940 357 933T397 918T433 903T467 896Q501 896 510 944L584 933Z"/>
<glyph unicode="Ò" glyph-name="Ograve" horiz-adv-x="686" d="M644 341Q644 167 570 77T343 -14Q191 -14 117 76T42 341Q42 515 116 606T343 697Q495 697 569 606T644 341ZM489 341Q489 465 455 522T343 579Q266 579 232 522T197 341Q197 217 231 161T343 104Q420 104 454 160T489 341ZM422 762L211 904L262 975Q282 1004 312 977L474 826L422 762Z"/>
<glyph unicode="Ó" glyph-name="Oacute" horiz-adv-x="686" d="M644 341Q644 167 570 77T343 -14Q191 -14 117 76T42 341Q42 515 116 606T343 697Q495 697 569 606T644 341ZM489 341Q489 465 455 522T343 579Q266 579 232 522T197 341Q197 217 231 161T343 104Q420 104 454 160T489 341ZM211 826L373 977Q403 1004 423 975L474 904L263 762L211 826Z"/>
<glyph unicode="Ô" glyph-name="Ocircumflex" horiz-adv-x="686" d="M644 341Q644 167 570 77T343 -14Q191 -14 117 76T42 341Q42 515 116 606T343 697Q495 697 569 606T644 341ZM489 341Q489 465 455 522T343 579Q266 579 232 522T197 341Q197 217 231 161T343 104Q420 104 454 160T489 341ZM523 817L471 764L343 866L215 764L163 817L265 935Q280 953 293 960T332 967H354Q380 967 393 960T421 935L523 817Z"/>
<glyph unicode="Õ" glyph-name="Otilde" horiz-adv-x="686" d="M644 341Q644 167 570 77T343 -14Q191 -14 117 76T42 341Q42 515 116 606T343 697Q495 697 569 606T644 341ZM489 341Q489 465 455 522T343 579Q266 579 232 522T197 341Q197 217 231 161T343 104Q420 104 454 160T489 341ZM533 933Q533 864 504 827T423 790Q400 790 380 797T340 812T304 827T270 834Q236 834 227 786L153 797Q153 866 182 903T263 940Q286 940 306 933T346 918T382 903T416 896Q450 896 459 944L533 933Z"/>
<glyph unicode="Ö" glyph-name="Odieresis" horiz-adv-x="686" d="M644 341Q644 167 570 77T343 -14Q191 -14 117 76T42 341Q42 515 116 606T343 697Q495 697 569 606T644 341ZM489 341Q489 465 455 522T343 579Q266 579 232 522T197 341Q197 217 231 161T343 104Q420 104 454 160T489 341ZM308 860Q308 825 290 809T237 793H231Q196 793 179 809T161 860V871Q161 907 178 922T231 938H237Q272 938 290 923T308 871V860ZM524 860Q524 825 507 809T454 793H448Q414 793 396 809T377 860V871Q377 907 395 922T448 938H454Q489 938 506 923T524 871V860Z"/>
<glyph unicode="×" glyph-name="multiply" horiz-adv-x="535" d="M334 324L434 224L368 158L268 258L168 158L102 224L202 324L102 424L168 490L268 390L368 490L434 424L334 324Z"/>
<glyph unicode="Ø" glyph-name="Oslash" horiz-adv-x="686" d="M501 661Q573 622 608 542T644 341Q644 167 570 77T343 -14Q297 -14 260 -5L235 -74H152L186 20Q113 59 78 139T42 341Q42 515 116 606T343 697Q366 697 387 695T428 688L453 757H536L501 661ZM197 341Q197 211 235 155L386 573Q366 579 343 579Q266 579 232 522T197 341ZM489 341Q489 467 452 525L301 109Q323 104 343 104Q420 104 454 160T489 341Z"/>
<glyph unicode="Ù" glyph-name="Ugrave" horiz-adv-x="741" d="M514 585H446V684H715V585H646V244Q646 178 630 133T582 55Q514 -14 375 -14Q301 -14 246 2T155 54Q125 84 110 128T94 241V585H26V684H313V585H244V242Q244 200 251 176T279 135Q296 120 321 113T379 105Q412 105 438 112T481 137Q514 168 514 240V585ZM440 762L229 904L280 975Q300 1004 330 977L492 826L440 762Z"/>
<glyph unicode="Ú" glyph-name="Uacute" horiz-adv-x="741" d="M514 585H446V684H715V585H646V244Q646 178 630 133T582 55Q514 -14 375 -14Q301 -14 246 2T155 54Q125 84 110 128T94 241V585H26V684H313V585H244V242Q244 200 251 176T279 135Q296 120 321 113T379 105Q412 105 438 112T481 137Q514 168 514 240V585ZM249 826L411 977Q441 1004 461 975L512 904L301 762L249 826Z"/>
<glyph unicode="Û" glyph-name="Ucircumflex" horiz-adv-x="741" d="M514 585H446V684H715V585H646V244Q646 178 630 133T582 55Q514 -14 375 -14Q301 -14 246 2T155 54Q125 84 110 128T94 241V585H26V684H313V585H244V242Q244 200 251 176T279 135Q296 120 321 113T379 105Q412 105 438 112T481 137Q514 168 514 240V585ZM560 817L508 764L380 866L252 764L200 817L302 935Q317 953 330 960T369 967H391Q417 967 430 960T458 935L560 817Z"/>
<glyph unicode="Ü" glyph-name="Udieresis" horiz-adv-x="741" d="M514 585H446V684H715V585H646V244Q646 178 630 133T582 55Q514 -14 375 -14Q301 -14 246 2T155 54Q125 84 110 128T94 241V585H26V684H313V585H244V242Q244 200 251 176T279 135Q296 120 321 113T379 105Q412 105 438 112T481 137Q514 168 514 240V585ZM346 860Q346 825 328 809T275 793H269Q234 793 217 809T199 860V871Q199 907 216 922T269 938H275Q310 938 328 923T346 871V860ZM562 860Q562 825 545 809T492 793H486Q452 793 434 809T415 860V871Q415 907 433 922T486 938H492Q527 938 544 923T562 871V860Z"/>
<glyph unicode="Ý" glyph-name="Yacute" horiz-adv-x="652" d="M70 585H6V684H125Q146 684 159 682T181 673T197 657T212 632L344 389L458 585H405V684H646V585H583L397 278V99H466V0H179V99H247V279L70 585ZM204 826L366 977Q396 1004 416 975L467 904L256 762L204 826Z"/>
<glyph unicode="Þ" glyph-name="Thorn" horiz-adv-x="651" d="M268 99H336V0H50V99H118V585H50V684H336V585H268V535H341Q396 535 446 531T536 508T598 451T621 346Q621 296 611 258T574 193T503 153T393 139Q378 139 361 140T327 143T294 147T268 152V99ZM268 434V245H355Q383 245 404 249T440 264T462 294T469 344Q469 374 461 392T438 419T399 431T346 434H268Z"/>
<glyph unicode="ß" glyph-name="germandbls" horiz-adv-x="705" d="M92 497Q92 614 161 673Q193 700 240 716T349 732Q399 732 440 722T511 690T557 638T573 564Q573 516 554 485T511 431T469 391T449 353Q449 338 465 330T507 315T562 298T616 270T658 224T675 149Q675 115 665 86T634 37Q609 11 570 -1T470 -14Q433 -14 390 -9T316 7Q303 12 299 18T294 37V154H390Q393 145 396 134Q398 125 400 114T405 92Q421 89 439 88T474 86Q503 86 523 96T543 130Q543 148 526 158T482 178T424 196T367 221T323 259T305 320Q305 360 326 390T372 445T419 495T440 551Q440 587 416 606T350 626Q291 626 259 588Q244 569 238 543T231 475V0H92V397H9V484L92 489V497Z"/>
<glyph unicode="à" glyph-name="agrave" horiz-adv-x="559" d="M340 211H259Q213 211 194 195Q178 181 178 153Q178 125 194 110T250 94Q271 94 296 97T340 106V211ZM422 -4Q390 -4 373 3T347 28Q318 8 282 -3T210 -14Q172 -14 140 -3T87 28Q40 72 40 147Q40 180 50 209T81 258Q107 283 150 293T261 303H340V333Q340 367 325 381Q314 390 298 393T254 397H94V485Q112 489 135 492T183 498T232 502T280 504Q328 504 368 494T435 461Q458 440 468 410T479 332V93H541V5Q527 3 511 2T478 -1T447 -3T422 -4ZM350 572L139 714L190 785Q210 814 240 787L402 636L350 572Z"/>
<glyph unicode="á" glyph-name="aacute" horiz-adv-x="559" d="M340 211H259Q213 211 194 195Q178 181 178 153Q178 125 194 110T250 94Q271 94 296 97T340 106V211ZM422 -4Q390 -4 373 3T347 28Q318 8 282 -3T210 -14Q172 -14 140 -3T87 28Q40 72 40 147Q40 180 50 209T81 258Q107 283 150 293T261 303H340V333Q340 367 325 381Q314 390 298 393T254 397H94V485Q112 489 135 492T183 498T232 502T280 504Q328 504 368 494T435 461Q458 440 468 410T479 332V93H541V5Q527 3 511 2T478 -1T447 -3T422 -4ZM156 636L318 787Q348 814 368 785L419 714L208 572L156 636Z"/>
<glyph unicode="â" glyph-name="acircumflex" horiz-adv-x="559" d="M340 211H259Q213 211 194 195Q178 181 178 153Q178 125 194 110T250 94Q271 94 296 97T340 106V211ZM422 -4Q390 -4 373 3T347 28Q318 8 282 -3T210 -14Q172 -14 140 -3T87 28Q40 72 40 147Q40 180 50 209T81 258Q107 283 150 293T261 303H340V333Q340 367 325 381Q314 390 298 393T254 397H94V485Q112 489 135 492T183 498T232 502T280 504Q328 504 368 494T435 461Q458 440 468 410T479 332V93H541V5Q527 3 511 2T478 -1T447 -3T422 -4ZM461 627L409 574L281 676L153 574L101 627L203 745Q218 763 231 770T270 777H292Q318 777 331 770T359 745L461 627Z"/>
<glyph unicode="ã" glyph-name="atilde" horiz-adv-x="559" d="M340 211H259Q213 211 194 195Q178 181 178 153Q178 125 194 110T250 94Q271 94 296 97T340 106V211ZM422 -4Q390 -4 373 3T347 28Q318 8 282 -3T210 -14Q172 -14 140 -3T87 28Q40 72 40 147Q40 180 50 209T81 258Q107 283 150 293T261 303H340V333Q340 367 325 381Q314 390 298 393T254 397H94V485Q112 489 135 492T183 498T232 502T280 504Q328 504 368 494T435 461Q458 440 468 410T479 332V93H541V5Q527 3 511 2T478 -1T447 -3T422 -4ZM464 743Q464 674 435 637T354 600Q331 600 311 607T271 622T235 637T201 644Q167 644 158 596L84 607Q84 676 113 713T194 750Q217 750 237 743T277 728T313 713T347 706Q381 706 390 754L464 743Z"/>
<glyph unicode="ä" glyph-name="adieresis" horiz-adv-x="559" d="M340 211H259Q213 211 194 195Q178 181 178 153Q178 125 194 110T250 94Q271 94 296 97T340 106V211ZM422 -4Q390 -4 373 3T347 28Q318 8 282 -3T210 -14Q172 -14 140 -3T87 28Q40 72 40 147Q40 180 50 209T81 258Q107 283 150 293T261 303H340V333Q340 367 325 381Q314 390 298 393T254 397H94V485Q112 489 135 492T183 498T232 502T280 504Q328 504 368 494T435 461Q458 440 468 410T479 332V93H541V5Q527 3 511 2T478 -1T447 -3T422 -4ZM241 670Q241 635 223 619T170 603H164Q129 603 112 619T94 670V681Q94 717 111 732T164 748H170Q205 748 223 733T241 681V670ZM457 670Q457 635 440 619T387 603H381Q347 603 329 619T310 670V681Q310 717 328 732T381 748H387Q422 748 439 733T457 681V670Z"/>
<glyph unicode="å" glyph-name="aring" horiz-adv-x="559" d="M340 211H259Q213 211 194 195Q178 181 178 153Q178 125 194 110T250 94Q271 94 296 97T340 106V211ZM422 -4Q390 -4 373 3T347 28Q318 8 282 -3T210 -14Q172 -14 140 -3T87 28Q40 72 40 147Q40 180 50 209T81 258Q107 283 150 293T261 303H340V333Q340 367 325 381Q314 390 298 393T254 397H94V485Q112 489 135 492T183 498T232 502T280 504Q328 504 368 494T435 461Q458 440 468 410T479 332V93H541V5Q527 3 511 2T478 -1T447 -3T422 -4ZM277 647Q304 647 317 659T330 701V705Q330 737 317 747T277 758H274Q246 758 233 748T219 705V701Q219 671 232 659T274 647H277ZM279 827Q339 827 371 800T404 711V697Q404 636 372 609T279 581H272Q211 581 179 608T146 697V711Q146 773 178 800T272 827H279Z"/>
<glyph unicode="æ" glyph-name="ae" horiz-adv-x="833" d="M479 201Q481 180 487 160T508 125Q525 109 553 101T630 93H775V5Q740 -2 691 -8T593 -14Q529 -14 484 1T406 42Q367 15 319 1T213 -14Q128 -14 84 30T40 147Q40 180 50 209T81 258Q107 283 150 293T261 303H340V333Q340 367 325 381Q314 390 298 393T254 397H94V485Q112 489 135 492T183 498T232 502T280 504Q329 504 368 494T429 461Q454 480 490 492T571 504Q683 504 739 441T796 257V212Q796 201 786 201H479ZM250 94Q273 94 299 98T355 112Q346 134 341 159T333 211H259Q213 211 194 195Q178 181 178 153Q178 125 194 110T250 94ZM660 294Q658 341 637 368T570 396Q524 396 503 369T479 294H660Z"/>
<glyph unicode="ç" glyph-name="ccedilla" horiz-adv-x="503" d="M325 -49Q349 -59 364 -68T389 -87T401 -110T405 -140Q405 -188 378 -218Q364 -235 339 -243T286 -252Q260 -252 238 -248T197 -237V-173H266Q310 -173 310 -150Q310 -141 303 -134T264 -116L254 -113Q225 -103 212 -91T199 -53Q199 -28 215 -6Q179 1 152 16T102 52Q67 86 50 134T33 243Q33 370 101 437T289 504Q307 504 327 503T368 498T407 492T440 484Q460 478 464 470T468 448V323H364Q360 335 357 347Q354 358 352 371T348 396Q337 398 322 398T296 399Q230 399 204 361T178 248Q178 206 186 180T208 135Q225 114 254 104T333 93H462V5Q427 -3 382 -8T295 -14H286V-21Q286 -29 291 -33T314 -45L325 -49Z"/>
<glyph unicode="è" glyph-name="egrave" horiz-adv-x="533" d="M179 201Q181 180 187 160T208 125Q225 109 253 101T330 93H475V5Q440 -2 391 -8T293 -14Q224 -14 177 3T98 50Q62 85 48 135T33 245Q33 303 47 350T91 432T165 485T271 504Q383 504 439 441T496 257V212Q496 201 486 201H179ZM360 294Q358 341 337 368T270 396Q224 396 203 369T179 294H360ZM354 572L143 714L194 785Q214 814 244 787L406 636L354 572Z"/>
<glyph unicode="é" glyph-name="eacute" horiz-adv-x="533" d="M179 201Q181 180 187 160T208 125Q225 109 253 101T330 93H475V5Q440 -2 391 -8T293 -14Q224 -14 177 3T98 50Q62 85 48 135T33 245Q33 303 47 350T91 432T165 485T271 504Q383 504 439 441T496 257V212Q496 201 486 201H179ZM360 294Q358 341 337 368T270 396Q224 396 203 369T179 294H360ZM154 636L316 787Q346 814 366 785L417 714L206 572L154 636Z"/>
<glyph unicode="ê" glyph-name="ecircumflex" horiz-adv-x="533" d="M179 201Q181 180 187 160T208 125Q225 109 253 101T330 93H475V5Q440 -2 391 -8T293 -14Q224 -14 177 3T98 50Q62 85 48 135T33 245Q33 303 47 350T91 432T165 485T271 504Q383 504 439 441T496 257V212Q496 201 486 201H179ZM360 294Q358 341 337 368T270 396Q224 396 203 369T179 294H360ZM450 627L398 574L270 676L142 574L90 627L192 745Q207 763 220 770T259 777H281Q307 777 320 770T348 745L450 627Z"/>
<glyph unicode="ë" glyph-name="edieresis" horiz-adv-x="533" d="M179 201Q181 180 187 160T208 125Q225 109 253 101T330 93H475V5Q440 -2 391 -8T293 -14Q224 -14 177 3T98 50Q62 85 48 135T33 245Q33 303 47 350T91 432T165 485T271 504Q383 504 439 441T496 257V212Q496 201 486 201H179ZM360 294Q358 341 337 368T270 396Q224 396 203 369T179 294H360ZM239 670Q239 635 221 619T168 603H162Q127 603 110 619T92 670V681Q92 717 109 732T162 748H168Q203 748 221 733T239 681V670ZM455 670Q455 635 438 619T385 603H379Q345 603 327 619T308 670V681Q308 717 326 732T379 748H385Q420 748 437 733T455 681V670Z"/>
<glyph unicode="ì" glyph-name="igrave" horiz-adv-x="295" d="M229 0H90V397H24V484Q39 486 56 487T90 490T122 493T147 494Q195 494 212 477T229 418V0ZM475 572L264 714L315 785Q335 814 365 787L527 636L475 572Z"/>
<glyph unicode="í" glyph-name="iacute" horiz-adv-x="295" d="M229 0H90V397H24V484Q39 486 56 487T90 490T122 493T147 494Q195 494 212 477T229 418V0ZM280 636L442 787Q472 814 492 785L543 714L332 572L280 636Z"/>
<glyph unicode="î" glyph-name="icircumflex" horiz-adv-x="295" d="M229 0H90V397H24V484Q39 486 56 487T90 490T122 493T147 494Q195 494 212 477T229 418V0ZM586 627L534 574L406 676L278 574L226 627L328 745Q343 763 356 770T395 777H417Q443 777 456 770T484 745L586 627Z"/>
<glyph unicode="ï" glyph-name="idieresis" horiz-adv-x="295" d="M229 0H90V397H24V484Q39 486 56 487T90 490T122 493T147 494Q195 494 212 477T229 418V0ZM368 670Q368 635 350 619T297 603H291Q256 603 239 619T221 670V681Q221 717 238 732T291 748H297Q332 748 350 733T368 681V670ZM584 670Q584 635 567 619T514 603H508Q474 603 456 619T437 670V681Q437 717 455 732T508 748H514Q549 748 566 733T584 681V670Z"/>
<glyph unicode="ð" glyph-name="eth" horiz-adv-x="572" d="M137 709Q157 728 173 744Q187 758 198 768T208 779Q230 765 250 751T291 722L361 790L419 732L354 668Q439 588 483 492T528 271Q528 207 514 155T470 65T394 7T283 -14Q221 -14 176 4T101 54T57 131T42 226Q42 284 57 328T101 402T167 447T252 463Q281 463 307 456T358 437Q333 516 271 587L205 523L147 581L213 646Q196 661 177 676T137 709ZM380 270Q380 290 379 309T376 347Q356 353 337 356T297 360Q241 360 216 326T191 228Q191 171 213 133T286 95Q339 95 359 142T380 270Z"/>
<glyph unicode="ñ" glyph-name="ntilde" horiz-adv-x="620" d="M602 93V5Q588 3 572 2T539 -1T507 -4T482 -5Q435 -5 418 13T401 71V320Q401 354 385 369Q375 378 359 381T323 384Q300 384 274 382T227 374V0H88V397H19V484Q48 489 83 491T144 494Q181 494 199 484T225 453Q258 476 301 490T389 504Q427 504 455 492T504 458Q540 416 540 339V93H602ZM511 743Q511 674 482 637T401 600Q378 600 358 607T318 622T282 637T248 644Q214 644 205 596L131 607Q131 676 160 713T241 750Q264 750 284 743T324 728T360 713T394 706Q428 706 437 754L511 743Z"/>
<glyph unicode="ò" glyph-name="ograve" horiz-adv-x="560" d="M527 245Q527 186 512 138T467 57T390 5T280 -14Q217 -14 171 4T94 56T48 138T33 245Q33 304 48 352T93 433T170 485T280 504Q343 504 389 486T466 434T512 352T527 245ZM382 245Q382 321 359 358T280 395Q225 395 202 358T178 245Q178 169 201 132T280 95Q335 95 358 132T382 245ZM357 572L146 714L197 785Q217 814 247 787L409 636L357 572Z"/>
<glyph unicode="ó" glyph-name="oacute" horiz-adv-x="560" d="M527 245Q527 186 512 138T467 57T390 5T280 -14Q217 -14 171 4T94 56T48 138T33 245Q33 304 48 352T93 433T170 485T280 504Q343 504 389 486T466 434T512 352T527 245ZM382 245Q382 321 359 358T280 395Q225 395 202 358T178 245Q178 169 201 132T280 95Q335 95 358 132T382 245ZM152 636L314 787Q344 814 364 785L415 714L204 572L152 636Z"/>
<glyph unicode="ô" glyph-name="ocircumflex" horiz-adv-x="560" d="M527 245Q527 186 512 138T467 57T390 5T280 -14Q217 -14 171 4T94 56T48 138T33 245Q33 304 48 352T93 433T170 485T280 504Q343 504 389 486T466 434T512 352T527 245ZM382 245Q382 321 359 358T280 395Q225 395 202 358T178 245Q178 169 201 132T280 95Q335 95 358 132T382 245ZM461 627L409 574L281 676L153 574L101 627L203 745Q218 763 231 770T270 777H292Q318 777 331 770T359 745L461 627Z"/>
<glyph unicode="õ" glyph-name="otilde" horiz-adv-x="560" d="M527 245Q527 186 512 138T467 57T390 5T280 -14Q217 -14 171 4T94 56T48 138T33 245Q33 304 48 352T93 433T170 485T280 504Q343 504 389 486T466 434T512 352T527 245ZM382 245Q382 321 359 358T280 395Q225 395 202 358T178 245Q178 169 201 132T280 95Q335 95 358 132T382 245ZM470 743Q470 674 441 637T360 600Q337 600 317 607T277 622T241 637T207 644Q173 644 164 596L90 607Q90 676 119 713T200 750Q223 750 243 743T283 728T319 713T353 706Q387 706 396 754L470 743Z"/>
<glyph unicode="ö" glyph-name="odieresis" horiz-adv-x="560" d="M527 245Q527 186 512 138T467 57T390 5T280 -14Q217 -14 171 4T94 56T48 138T33 245Q33 304 48 352T93 433T170 485T280 504Q343 504 389 486T466 434T512 352T527 245ZM382 245Q382 321 359 358T280 395Q225 395 202 358T178 245Q178 169 201 132T280 95Q335 95 358 132T382 245ZM245 670Q245 635 227 619T174 603H168Q133 603 116 619T98 670V681Q98 717 115 732T168 748H174Q209 748 227 733T245 681V670ZM461 670Q461 635 444 619T391 603H385Q351 603 333 619T314 670V681Q314 717 332 732T385 748H391Q426 748 443 733T461 681V670Z"/>
<glyph unicode="÷" glyph-name="divide" horiz-adv-x="535" d="M338 513Q338 451 272 451H265Q200 451 200 513V526Q200 559 216 573T265 587H272Q305 587 321 573T338 526V513ZM338 122Q338 89 322 75T272 60H265Q232 60 216 74T200 122V135Q200 168 216 182T265 196H272Q305 196 321 182T338 135V122ZM81 277V371H455V277H81Z"/>
<glyph unicode="ø" glyph-name="oslash" horiz-adv-x="560" d="M527 245Q527 186 512 138T467 57T390 5T280 -14Q265 -14 252 -13T225 -10L202 -74H133L162 7Q96 36 65 97T33 245Q33 304 48 352T93 433T170 485T280 504Q296 504 311 503T340 499L364 564H433L402 480Q466 451 496 391T527 245ZM178 245Q178 162 205 126L302 393Q297 394 292 394T280 395Q225 395 202 358T178 245ZM382 245Q382 283 377 311T358 358L263 96Q268 95 271 95T280 95Q335 95 358 132T382 245Z"/>
<glyph unicode="ù" glyph-name="ugrave" horiz-adv-x="611" d="M472 -4Q436 -4 418 6T394 38Q361 14 318 0T231 -14Q193 -14 165 -2T117 32Q98 53 89 83T80 151V397H18V485Q47 489 82 491T138 494Q185 494 202 477T219 419V170Q219 137 235 121Q245 112 261 109T298 106Q320 106 344 108T391 116V397H332V490H530V93H592V6Q577 4 561 2T528 -1T497 -3T472 -4ZM369 572L158 714L209 785Q229 814 259 787L421 636L369 572Z"/>
<glyph unicode="ú" glyph-name="uacute" horiz-adv-x="611" d="M472 -4Q436 -4 418 6T394 38Q361 14 318 0T231 -14Q193 -14 165 -2T117 32Q98 53 89 83T80 151V397H18V485Q47 489 82 491T138 494Q185 494 202 477T219 419V170Q219 137 235 121Q245 112 261 109T298 106Q320 106 344 108T391 116V397H332V490H530V93H592V6Q577 4 561 2T528 -1T497 -3T472 -4ZM187 636L349 787Q379 814 399 785L450 714L239 572L187 636Z"/>
<glyph unicode="û" glyph-name="ucircumflex" horiz-adv-x="611" d="M472 -4Q436 -4 418 6T394 38Q361 14 318 0T231 -14Q193 -14 165 -2T117 32Q98 53 89 83T80 151V397H18V485Q47 489 82 491T138 494Q185 494 202 477T219 419V170Q219 137 235 121Q245 112 261 109T298 106Q320 106 344 108T391 116V397H332V490H530V93H592V6Q577 4 561 2T528 -1T497 -3T472 -4ZM477 627L425 574L297 676L169 574L117 627L219 745Q234 763 247 770T286 777H308Q334 777 347 770T375 745L477 627Z"/>
<glyph unicode="ü" glyph-name="udieresis" horiz-adv-x="611" d="M472 -4Q436 -4 418 6T394 38Q361 14 318 0T231 -14Q193 -14 165 -2T117 32Q98 53 89 83T80 151V397H18V485Q47 489 82 491T138 494Q185 494 202 477T219 419V170Q219 137 235 121Q245 112 261 109T298 106Q320 106 344 108T391 116V397H332V490H530V93H592V6Q577 4 561 2T528 -1T497 -3T472 -4ZM263 670Q263 635 245 619T192 603H186Q151 603 134 619T116 670V681Q116 717 133 732T186 748H192Q227 748 245 733T263 681V670ZM479 670Q479 635 462 619T409 603H403Q369 603 351 619T332 670V681Q332 717 350 732T403 748H409Q444 748 461 733T479 681V670Z"/>
<glyph unicode="ý" glyph-name="yacute" horiz-adv-x="596" d="M18 397V485Q47 489 82 491T138 494Q185 494 202 476T219 418V170Q219 137 235 121Q245 112 261 109T298 106Q320 106 344 108T391 116V397H332V490H530V-16Q530 -73 518 -114T479 -183Q425 -239 304 -239Q270 -239 229 -236T156 -224V-135H265Q335 -135 363 -110Q391 -85 391 -22V33Q358 11 316 -1T231 -14Q193 -14 165 -2T117 32Q98 53 89 83T80 151V397H18ZM176 636L338 787Q368 814 388 785L439 714L228 572L176 636Z"/>
<glyph unicode="þ" glyph-name="thorn" horiz-adv-x="566" d="M211 455Q243 478 280 491T355 504Q403 504 436 485T491 431T522 350T532 249Q532 177 518 127T479 45T419 0T343 -14Q310 -14 275 -3T211 26V-225H72V627H6V714Q21 716 38 717T71 720T103 723T129 724Q177 724 194 707T211 649V455ZM211 115Q229 107 253 103T301 99Q324 99 340 106T366 130T382 177T387 251Q387 290 382 316T367 359T339 382T297 389Q279 389 255 385T211 375V115Z"/>
<glyph unicode="ÿ" glyph-name="ydieresis" horiz-adv-x="596" d="M18 397V485Q47 489 82 491T138 494Q185 494 202 476T219 418V170Q219 137 235 121Q245 112 261 109T298 106Q320 106 344 108T391 116V397H332V490H530V-16Q530 -73 518 -114T479 -183Q425 -239 304 -239Q270 -239 229 -236T156 -224V-135H265Q335 -135 363 -110Q391 -85 391 -22V33Q358 11 316 -1T231 -14Q193 -14 165 -2T117 32Q98 53 89 83T80 151V397H18ZM255 670Q255 635 237 619T184 603H178Q143 603 126 619T108 670V681Q108 717 125 732T178 748H184Q219 748 237 733T255 681V670ZM471 670Q471 635 454 619T401 603H395Q361 603 343 619T324 670V681Q324 717 342 732T395 748H401Q436 748 453 733T471 681V670Z"/>
<glyph unicode="Ā" glyph-name="Amacron" horiz-adv-x="693" d="M410 99H470L437 198H214L182 99H245V0H2V99H60L267 684H379Q404 684 413 680T428 659L632 99H691V0H410V99ZM248 298H403L325 534L248 298ZM183 809V911H490V809H183Z"/>
<glyph unicode="ā" glyph-name="amacron" horiz-adv-x="559" d="M340 211H259Q213 211 194 195Q178 181 178 153Q178 125 194 110T250 94Q271 94 296 97T340 106V211ZM422 -4Q390 -4 373 3T347 28Q318 8 282 -3T210 -14Q172 -14 140 -3T87 28Q40 72 40 147Q40 180 50 209T81 258Q107 283 150 293T261 303H340V333Q340 367 325 381Q314 390 298 393T254 397H94V485Q112 489 135 492T183 498T232 502T280 504Q328 504 368 494T435 461Q458 440 468 410T479 332V93H541V5Q527 3 511 2T478 -1T447 -3T422 -4ZM130 619V721H437V619H130Z"/>
<glyph unicode="Ă" glyph-name="Abreve" horiz-adv-x="693" d="M410 99H470L437 198H214L182 99H245V0H2V99H60L267 684H379Q404 684 413 680T428 659L632 99H691V0H410V99ZM248 298H403L325 534L248 298ZM260 947Q265 909 283 889T337 868Q373 868 391 888T414 947L503 944Q503 911 495 881T468 828T416 792T337 778Q290 778 258 791T207 828T179 881T170 944L260 947V947Z"/>
<glyph unicode="ă" glyph-name="abreve" horiz-adv-x="559" d="M340 211H259Q213 211 194 195Q178 181 178 153Q178 125 194 110T250 94Q271 94 296 97T340 106V211ZM422 -4Q390 -4 373 3T347 28Q318 8 282 -3T210 -14Q172 -14 140 -3T87 28Q40 72 40 147Q40 180 50 209T81 258Q107 283 150 293T261 303H340V333Q340 367 325 381Q314 390 298 393T254 397H94V485Q112 489 135 492T183 498T232 502T280 504Q328 504 368 494T435 461Q458 440 468 410T479 332V93H541V5Q527 3 511 2T478 -1T447 -3T422 -4ZM208 757Q213 719 231 699T285 678Q321 678 339 698T362 757L451 754Q451 721 443 691T416 638T364 602T285 588Q238 588 206 601T155 638T127 691T118 754L208 757V757Z"/>
<glyph unicode="Ą" glyph-name="Aogonek" horiz-adv-x="693" d="M410 99H470L437 198H214L182 99H245V0H2V99H60L267 684H379Q404 684 413 680T428 659L632 99H691V0H612Q577 -37 561 -65T545 -122Q545 -167 606 -167H662V-234Q639 -242 615 -245T570 -249Q516 -249 481 -220T445 -132Q445 -95 466 -62T521 0H410V99ZM248 298H403L325 534L248 298Z"/>
<glyph unicode="ą" glyph-name="aogonek" horiz-adv-x="559" d="M324 -132Q324 -87 347 -55T403 -3Q380 -1 367 6T347 28Q318 8 282 -3T210 -14Q172 -14 140 -3T87 28Q40 72 40 147Q40 180 50 209T81 258Q107 283 150 293T261 303H340V333Q340 367 325 381Q314 390 298 393T254 397H94V485Q112 489 135 492T183 498T232 502T280 504Q328 504 368 494T435 461Q458 440 468 410T479 332V93H541V5Q480 -12 452 -45T424 -114Q424 -167 486 -167H541V-234Q518 -242 494 -245T449 -249Q395 -249 360 -220T324 -132ZM340 211H259Q213 211 194 195Q178 181 178 153Q178 125 194 110T250 94Q271 94 296 97T340 106V211Z"/>
<glyph unicode="Ć" glyph-name="Cacute" horiz-adv-x="602" d="M545 3Q527 -2 505 -5T460 -10T413 -13T370 -14Q284 -14 223 7T123 69Q81 115 62 183T42 342Q42 431 62 499T125 612Q168 658 228 677T361 697Q406 697 451 691T529 677Q546 673 552 666T558 641V494H451Q446 507 440 532T432 578Q415 580 398 581T363 583Q327 583 297 574T244 537Q219 507 208 459T197 345Q197 285 208 234T245 153Q266 130 302 117T404 104H545V3ZM232 826L394 977Q424 1004 444 975L495 904L284 762L232 826Z"/>
<glyph unicode="ć" glyph-name="cacute" horiz-adv-x="503" d="M462 93V5Q427 -3 382 -8T295 -14Q227 -14 181 3T102 52Q67 86 50 134T33 243Q33 370 101 437T289 504Q307 504 327 503T368 498T407 492T440 484Q460 478 464 470T468 448V323H364Q360 335 357 347Q354 358 352 371T348 396Q337 398 322 398T296 399Q230 399 204 361T178 248Q178 206 186 180T208 135Q225 114 254 104T333 93H462ZM164 636L326 787Q356 814 376 785L427 714L216 572L164 636Z"/>
<glyph unicode="Ĉ" glyph-name="Ccircumflex" horiz-adv-x="602" d="M545 3Q527 -2 505 -5T460 -10T413 -13T370 -14Q284 -14 223 7T123 69Q81 115 62 183T42 342Q42 431 62 499T125 612Q168 658 228 677T361 697Q406 697 451 691T529 677Q546 673 552 666T558 641V494H451Q446 507 440 532T432 578Q415 580 398 581T363 583Q327 583 297 574T244 537Q219 507 208 459T197 345Q197 285 208 234T245 153Q266 130 302 117T404 104H545V3ZM539 817L487 764L359 866L231 764L179 817L281 935Q296 953 309 960T348 967H370Q396 967 409 960T437 935L539 817Z"/>
<glyph unicode="ĉ" glyph-name="ccircumflex" horiz-adv-x="503" d="M462 93V5Q427 -3 382 -8T295 -14Q227 -14 181 3T102 52Q67 86 50 134T33 243Q33 370 101 437T289 504Q307 504 327 503T368 498T407 492T440 484Q460 478 464 470T468 448V323H364Q360 335 357 347Q354 358 352 371T348 396Q337 398 322 398T296 399Q230 399 204 361T178 248Q178 206 186 180T208 135Q225 114 254 104T333 93H462ZM477 627L425 574L297 676L169 574L117 627L219 745Q234 763 247 770T286 777H308Q334 777 347 770T375 745L477 627Z"/>
<glyph unicode="Ċ" glyph-name="Cdotaccent" horiz-adv-x="602" d="M545 3Q527 -2 505 -5T460 -10T413 -13T370 -14Q284 -14 223 7T123 69Q81 115 62 183T42 342Q42 431 62 499T125 612Q168 658 228 677T361 697Q406 697 451 691T529 677Q546 673 552 666T558 641V494H451Q446 507 440 532T432 578Q415 580 398 581T363 583Q327 583 297 574T244 537Q219 507 208 459T197 345Q197 285 208 234T245 153Q266 130 302 117T404 104H545V3ZM436 862Q436 824 417 808T361 791H355Q317 791 299 807T280 862V873Q280 912 298 928T355 944H361Q398 944 417 928T436 873V862Z"/>
<glyph unicode="ċ" glyph-name="cdotaccent" horiz-adv-x="503" d="M462 93V5Q427 -3 382 -8T295 -14Q227 -14 181 3T102 52Q67 86 50 134T33 243Q33 370 101 437T289 504Q307 504 327 503T368 498T407 492T440 484Q460 478 464 470T468 448V323H364Q360 335 357 347Q354 358 352 371T348 396Q337 398 322 398T296 399Q230 399 204 361T178 248Q178 206 186 180T208 135Q225 114 254 104T333 93H462ZM375 672Q375 634 356 618T300 601H294Q256 601 238 617T219 672V683Q219 722 237 738T294 754H300Q337 754 356 738T375 683V672Z"/>
<glyph unicode="Č" glyph-name="Ccaron" horiz-adv-x="602" d="M545 3Q527 -2 505 -5T460 -10T413 -13T370 -14Q284 -14 223 7T123 69Q81 115 62 183T42 342Q42 431 62 499T125 612Q168 658 228 677T361 697Q406 697 451 691T529 677Q546 673 552 666T558 641V494H451Q446 507 440 532T432 578Q415 580 398 581T363 583Q327 583 297 574T244 537Q219 507 208 459T197 345Q197 285 208 234T245 153Q266 130 302 117T404 104H545V3ZM439 809Q424 791 411 784T372 777H350Q324 777 311 784T283 809L181 927L233 980L361 878L489 980L541 927L439 809Z"/>
<glyph unicode="č" glyph-name="ccaron" horiz-adv-x="503" d="M462 93V5Q427 -3 382 -8T295 -14Q227 -14 181 3T102 52Q67 86 50 134T33 243Q33 370 101 437T289 504Q307 504 327 503T368 498T407 492T440 484Q460 478 464 470T468 448V323H364Q360 335 357 347Q354 358 352 371T348 396Q337 398 322 398T296 399Q230 399 204 361T178 248Q178 206 186 180T208 135Q225 114 254 104T333 93H462ZM372 619Q357 601 344 594T305 587H283Q257 587 244 594T216 619L114 737L166 790L294 688L422 790L474 737L372 619Z"/>
<glyph unicode="Ď" glyph-name="Dcaron" horiz-adv-x="721" d="M50 0V99H118V585H50V684H325Q422 684 488 667T597 607Q638 567 658 503T679 345Q679 251 659 185T597 77Q559 38 499 19T347 0H50ZM268 101H337Q443 101 486 162Q507 193 515 237T523 345Q523 418 512 464T474 538Q451 563 414 573T319 583H268V101ZM446 809Q431 791 418 784T379 777H357Q331 777 318 784T290 809L188 927L240 980L368 878L496 980L548 927L446 809Z"/>
<glyph unicode="ď" glyph-name="dcaron" horiz-adv-x="722" d="M495 93H557V6Q543 4 527 2T494 -1T462 -3T437 -4Q404 -4 387 4T361 31Q336 12 302 -1T229 -14Q188 -14 153 -1T91 44T50 125T34 247Q34 306 47 353T85 434T148 486T232 504Q265 504 296 495T356 470V627H290V714Q305 716 322 717T355 720T387 723T413 724Q461 724 478 707T495 649V93ZM356 384Q337 387 319 389T282 392Q231 392 205 357T179 241Q179 159 204 128T276 96Q296 96 317 99T356 109V384ZM544 626Q544 659 561 678T614 697H621Q655 697 673 678T692 624V599Q692 553 689 512T677 447Q669 424 640 424H603V551Q572 562 558 579T544 625V626Z"/>
<glyph unicode="Đ" glyph-name="Dcroat" horiz-adv-x="725" d="M44 382L122 391V585H54V684H329Q426 684 492 667T601 607Q642 567 662 503T683 345Q683 251 663 185T601 77Q563 38 503 19T351 0H54V99H122V295H44V382ZM272 399H397V295H272V101H341Q447 101 490 162Q511 193 519 237T527 345Q527 418 516 464T478 538Q455 563 418 573T323 583H272V399Z"/>
<glyph unicode="đ" glyph-name="dcroat" horiz-adv-x="579" d="M495 534V93H557V6Q543 4 527 2T494 -1T462 -3T437 -4Q404 -4 387 4T361 31Q336 12 302 -1T229 -14Q188 -14 153 -1T91 44T50 125T34 247Q34 306 47 353T85 434T148 486T232 504Q265 504 296 495T356 470V534H217V595H356V627H290V714Q305 716 322 717T355 720T387 723T413 724Q461 724 478 707T495 649V592L550 587V534H495ZM356 384Q337 387 319 389T282 392Q231 392 205 357T179 241Q179 159 204 128T276 96Q296 96 317 99T356 109V384Z"/>
<glyph unicode="Ē" glyph-name="Emacron" horiz-adv-x="644" d="M484 99Q484 109 486 123T490 151T496 178T503 197H600V18Q600 6 594 3T561 0H50V99H118V585H50V684H555Q580 684 587 681T594 666V489H497Q494 496 491 508T485 533T480 561T478 585H268V400H432Q450 400 455 398T461 387V294H268V99H484ZM168 809V911H475V809H168Z"/>
<glyph unicode="ē" glyph-name="emacron" horiz-adv-x="533" d="M179 201Q181 180 187 160T208 125Q225 109 253 101T330 93H475V5Q440 -2 391 -8T293 -14Q224 -14 177 3T98 50Q62 85 48 135T33 245Q33 303 47 350T91 432T165 485T271 504Q383 504 439 441T496 257V212Q496 201 486 201H179ZM360 294Q358 341 337 368T270 396Q224 396 203 369T179 294H360ZM119 619V721H426V619H119Z"/>
<glyph unicode="Ĕ" glyph-name="Ebreve" horiz-adv-x="644" d="M484 99Q484 109 486 123T490 151T496 178T503 197H600V18Q600 6 594 3T561 0H50V99H118V585H50V684H555Q580 684 587 681T594 666V489H497Q494 496 491 508T485 533T480 561T478 585H268V400H432Q450 400 455 398T461 387V294H268V99H484ZM260 947Q265 909 283 889T337 868Q373 868 391 888T414 947L503 944Q503 911 495 881T468 828T416 792T337 778Q290 778 258 791T207 828T179 881T170 944L260 947V947Z"/>
<glyph unicode="ĕ" glyph-name="ebreve" horiz-adv-x="533" d="M179 201Q181 180 187 160T208 125Q225 109 253 101T330 93H475V5Q440 -2 391 -8T293 -14Q224 -14 177 3T98 50Q62 85 48 135T33 245Q33 303 47 350T91 432T165 485T271 504Q383 504 439 441T496 257V212Q496 201 486 201H179ZM360 294Q358 341 337 368T270 396Q224 396 203 369T179 294H360ZM198 757Q203 719 221 699T275 678Q311 678 329 698T352 757L441 754Q441 721 433 691T406 638T354 602T275 588Q228 588 196 601T145 638T117 691T108 754L198 757V757Z"/>
<glyph unicode="Ė" glyph-name="Edotaccent" horiz-adv-x="644" d="M484 99Q484 109 486 123T490 151T496 178T503 197H600V18Q600 6 594 3T561 0H50V99H118V585H50V684H555Q580 684 587 681T594 666V489H497Q494 496 491 508T485 533T480 561T478 585H268V400H432Q450 400 455 398T461 387V294H268V99H484ZM409 862Q409 824 390 808T334 791H328Q290 791 272 807T253 862V873Q253 912 271 928T328 944H334Q371 944 390 928T409 873V862Z"/>
<glyph unicode="ė" glyph-name="edotaccent" horiz-adv-x="533" d="M179 201Q181 180 187 160T208 125Q225 109 253 101T330 93H475V5Q440 -2 391 -8T293 -14Q224 -14 177 3T98 50Q62 85 48 135T33 245Q33 303 47 350T91 432T165 485T271 504Q383 504 439 441T496 257V212Q496 201 486 201H179ZM360 294Q358 341 337 368T270 396Q224 396 203 369T179 294H360ZM351 672Q351 634 332 618T276 601H270Q232 601 214 617T195 672V683Q195 722 213 738T270 754H276Q313 754 332 738T351 683V672Z"/>
<glyph unicode="Ę" glyph-name="Eogonek" horiz-adv-x="644" d="M368 -132Q368 -95 389 -62T444 0H50V99H118V585H50V684H555Q580 684 587 681T594 666V489H497Q494 496 491 508T485 533T480 561T478 585H268V400H432Q450 400 455 398T461 387V294H268V99H484Q484 109 486 123T490 151T496 178T503 197H600V18Q600 6 594 3T561 0H535Q500 -37 484 -65T468 -122Q468 -167 529 -167H585V-234Q562 -242 538 -245T493 -249Q439 -249 404 -220T368 -132Z"/>
<glyph unicode="ę" glyph-name="eogonek" horiz-adv-x="533" d="M259 -132Q259 -96 278 -66T330 -13Q320 -13 311 -13T293 -14Q224 -14 177 3T98 50Q62 85 48 135T33 245Q33 303 47 350T91 432T165 485T271 504Q383 504 439 441T496 257V212Q496 201 486 201H179Q181 180 187 160T208 125Q225 109 253 101T330 93H475V5Q447 -2 426 -14T389 -43T367 -79T359 -117Q359 -139 372 -153T420 -167H476V-234Q453 -242 429 -245T384 -249Q330 -249 295 -220T259 -132ZM360 294Q358 341 337 368T270 396Q224 396 203 369T179 294H360Z"/>
<glyph unicode="Ě" glyph-name="Ecaron" horiz-adv-x="644" d="M484 99Q484 109 486 123T490 151T496 178T503 197H600V18Q600 6 594 3T561 0H50V99H118V585H50V684H555Q580 684 587 681T594 666V489H497Q494 496 491 508T485 533T480 561T478 585H268V400H432Q450 400 455 398T461 387V294H268V99H484ZM420 809Q405 791 392 784T353 777H331Q305 777 292 784T264 809L162 927L214 980L342 878L470 980L522 927L420 809Z"/>
<glyph unicode="ě" glyph-name="ecaron" horiz-adv-x="533" d="M179 201Q181 180 187 160T208 125Q225 109 253 101T330 93H475V5Q440 -2 391 -8T293 -14Q224 -14 177 3T98 50Q62 85 48 135T33 245Q33 303 47 350T91 432T165 485T271 504Q383 504 439 441T496 257V212Q496 201 486 201H179ZM360 294Q358 341 337 368T270 396Q224 396 203 369T179 294H360ZM354 619Q339 601 326 594T287 587H265Q239 587 226 594T198 619L96 737L148 790L276 688L404 790L456 737L354 619Z"/>
<glyph unicode="Ĝ" glyph-name="Gcircumflex" horiz-adv-x="693" d="M379 346H593Q613 346 618 340T623 318V0H514Q509 4 502 14T490 33Q460 13 418 0T326 -14Q187 -14 115 78T42 340Q42 428 66 498T135 613Q178 657 240 677T385 697Q406 697 431 696T480 691T525 684T562 676Q579 671 585 664T591 639V494H483Q475 508 470 533T463 579Q425 585 383 585Q341 585 310 575T256 542Q197 485 197 341Q197 217 237 160T368 102Q403 102 428 107T474 123V247H379V346ZM556 817L504 764L376 866L248 764L196 817L298 935Q313 953 326 960T365 967H387Q413 967 426 960T454 935L556 817Z"/>
<glyph unicode="ĝ" glyph-name="gcircumflex" horiz-adv-x="532" d="M489 316Q489 217 432 172T270 127Q231 127 198 133V88H305Q367 88 411 79T484 40Q502 22 512 -5T523 -69Q523 -117 505 -149T453 -202T373 -230T272 -239H271Q143 -239 87 -204T31 -110Q31 -78 48 -52T91 -9Q63 10 63 49Q63 75 81 105T128 160Q91 183 71 221T50 316Q50 414 108 459T270 504Q320 504 357 494L413 561Q429 551 450 530T490 481L443 448Q489 402 489 316ZM446 627L394 574L266 676L138 574L86 627L188 745Q203 763 216 770T255 777H277Q303 777 316 770T344 745L446 627ZM362 316Q362 358 341 380T270 403Q220 403 199 381T177 316Q177 273 198 251T270 228Q319 228 340 250T362 316ZM163 -27V-50Q163 -76 166 -89T178 -111Q200 -132 272 -132H282Q339 -132 363 -119T387 -78Q387 -52 370 -40T305 -27H163Z"/>
<glyph unicode="Ğ" glyph-name="Gbreve" horiz-adv-x="693" d="M379 346H593Q613 346 618 340T623 318V0H514Q509 4 502 14T490 33Q460 13 418 0T326 -14Q187 -14 115 78T42 340Q42 428 66 498T135 613Q178 657 240 677T385 697Q406 697 431 696T480 691T525 684T562 676Q579 671 585 664T591 639V494H483Q475 508 470 533T463 579Q425 585 383 585Q341 585 310 575T256 542Q197 485 197 341Q197 217 237 160T368 102Q403 102 428 107T474 123V247H379V346ZM310 947Q315 909 333 889T387 868Q423 868 441 888T464 947L553 944Q553 911 545 881T518 828T466 792T387 778Q340 778 308 791T257 828T229 881T220 944L310 947V947Z"/>
<glyph unicode="ğ" glyph-name="gbreve" horiz-adv-x="532" d="M489 316Q489 217 432 172T270 127Q231 127 198 133V88H305Q367 88 411 79T484 40Q502 22 512 -5T523 -69Q523 -117 505 -149T453 -202T373 -230T272 -239H271Q143 -239 87 -204T31 -110Q31 -78 48 -52T91 -9Q63 10 63 49Q63 75 81 105T128 160Q91 183 71 221T50 316Q50 414 108 459T270 504Q320 504 357 494L413 561Q429 551 450 530T490 481L443 448Q489 402 489 316ZM362 316Q362 358 341 380T270 403Q220 403 199 381T177 316Q177 273 198 251T270 228Q319 228 340 250T362 316ZM163 -27V-50Q163 -76 166 -89T178 -111Q200 -132 272 -132H282Q339 -132 363 -119T387 -78Q387 -52 370 -40T305 -27H163ZM189 757Q194 719 212 699T266 678Q302 678 320 698T343 757L432 754Q432 721 424 691T397 638T345 602T266 588Q219 588 187 601T136 638T108 691T99 754L189 757V757Z"/>
<glyph unicode="Ġ" glyph-name="Gdotaccent" horiz-adv-x="693" d="M379 346H593Q613 346 618 340T623 318V0H514Q509 4 502 14T490 33Q460 13 418 0T326 -14Q187 -14 115 78T42 340Q42 428 66 498T135 613Q178 657 240 677T385 697Q406 697 431 696T480 691T525 684T562 676Q579 671 585 664T591 639V494H483Q475 508 470 533T463 579Q425 585 383 585Q341 585 310 575T256 542Q197 485 197 341Q197 217 237 160T368 102Q403 102 428 107T474 123V247H379V346ZM464 862Q464 824 445 808T389 791H383Q345 791 327 807T308 862V873Q308 912 326 928T383 944H389Q426 944 445 928T464 873V862Z"/>
<glyph unicode="ġ" glyph-name="gdotaccent" horiz-adv-x="532" d="M489 316Q489 217 432 172T270 127Q231 127 198 133V88H305Q367 88 411 79T484 40Q502 22 512 -5T523 -69Q523 -117 505 -149T453 -202T373 -230T272 -239H271Q143 -239 87 -204T31 -110Q31 -78 48 -52T91 -9Q63 10 63 49Q63 75 81 105T128 160Q91 183 71 221T50 316Q50 414 108 459T270 504Q320 504 357 494L413 561Q429 551 450 530T490 481L443 448Q489 402 489 316ZM362 316Q362 358 341 380T270 403Q220 403 199 381T177 316Q177 273 198 251T270 228Q319 228 340 250T362 316ZM163 -27V-50Q163 -76 166 -89T178 -111Q200 -132 272 -132H282Q339 -132 363 -119T387 -78Q387 -52 370 -40T305 -27H163ZM344 672Q344 634 325 618T269 601H263Q225 601 207 617T188 672V683Q188 722 206 738T263 754H269Q306 754 325 738T344 683V672Z"/>
<glyph unicode="Ģ" glyph-name="Gcommaaccent" horiz-adv-x="693" d="M379 346H593Q613 346 618 340T623 318V0H514Q509 4 502 14T490 33Q460 13 418 0T326 -14Q187 -14 115 78T42 340Q42 428 66 498T135 613Q178 657 240 677T385 697Q406 697 431 696T480 691T525 684T562 676Q579 671 585 664T591 639V494H483Q475 508 470 533T463 579Q425 585 383 585Q341 585 310 575T256 542Q197 485 197 341Q197 217 237 160T368 102Q403 102 428 107T474 123V247H379V346ZM300 -151Q300 -118 317 -99T370 -80H377Q411 -80 429 -99T448 -153V-178Q448 -224 445 -265T433 -330Q425 -353 396 -353H359V-226Q328 -215 314 -198T300 -152V-151Z"/>
<glyph unicode="ģ" glyph-name="gcommaaccent" horiz-adv-x="532" d="M489 316Q489 217 432 172T270 127Q231 127 198 133V88H305Q367 88 411 79T484 40Q502 22 512 -5T523 -69Q523 -117 505 -149T453 -202T373 -230T272 -239H271Q143 -239 87 -204T31 -110Q31 -78 48 -52T91 -9Q63 10 63 49Q63 75 81 105T128 160Q91 183 71 221T50 316Q50 414 108 459T270 504Q320 504 357 494L413 561Q429 551 450 530T490 481L443 448Q489 402 489 316ZM362 316Q362 358 341 380T270 403Q220 403 199 381T177 316Q177 273 198 251T270 228Q319 228 340 250T362 316ZM163 -27V-50Q163 -76 166 -89T178 -111Q200 -132 272 -132H282Q339 -132 363 -119T387 -78Q387 -52 370 -40T305 -27H163ZM340 648Q340 615 323 596T270 577H263Q229 577 211 596T192 650V675Q192 721 195 762T207 827Q215 850 244 850H281V723Q312 712 326 695T340 649V648Z"/>
<glyph unicode="Ĥ" glyph-name="Hcircumflex" horiz-adv-x="777" d="M727 0H441V99H509V294H268V99H336V0H50V99H118V585H50V684H336V585H268V400H509V585H441V684H727V585H659V99H727V0ZM572 817L520 764L392 866L264 764L212 817L314 935Q329 953 342 960T381 967H403Q429 967 442 960T470 935L572 817Z"/>
<glyph unicode="ĥ" glyph-name="hcircumflex" horiz-adv-x="604" d="M211 456Q244 478 287 491T373 504Q411 504 439 492T487 458Q524 417 524 339V93H586V5Q557 1 522 -1T466 -4Q419 -4 402 13T385 72V320Q385 354 369 369Q359 378 343 381T307 384Q284 384 259 382T211 375V0H72V627H6V714Q21 716 38 717T71 720T103 723T129 724Q177 724 194 707T211 649V456ZM318 810L266 757L138 859L10 757L-42 810L60 928Q75 946 88 953T127 960H149Q175 960 188 953T216 928L318 810Z"/>
<glyph unicode="Ħ" glyph-name="Hbar" horiz-adv-x="792" d="M734 0H448V99H516V294H275V99H343V0H57V99H125V459H30V541H125V585H57V684H343V585H275V541H516V585H448V684H734V585H666V541H762V459H666V99H734V0ZM516 400V459H275V400H516Z"/>
<glyph unicode="ħ" glyph-name="hbar" horiz-adv-x="604" d="M72 627H6V714Q21 716 38 717T71 720T103 723T129 724Q177 724 194 707T211 649V597H361V536H211V456Q244 478 287 491T373 504Q411 504 439 492T487 458Q524 417 524 339V93H586V5Q557 1 522 -1T466 -4Q419 -4 402 13T385 72V320Q385 354 369 369Q359 378 343 381T307 384Q284 384 259 382T211 375V0H72V536H17V589L72 594V627Z"/>
<glyph unicode="Ĩ" glyph-name="Itilde" horiz-adv-x="390" d="M120 585H52V684H338V585H270V99H338V0H52V99H120V585ZM643 933Q643 864 614 827T533 790Q510 790 490 797T450 812T414 827T380 834Q346 834 337 786L263 797Q263 866 292 903T373 940Q396 940 416 933T456 918T492 903T526 896Q560 896 569 944L643 933Z"/>
<glyph unicode="ĩ" glyph-name="itilde" horiz-adv-x="295" d="M229 0H90V397H24V484Q39 486 56 487T90 490T122 493T147 494Q195 494 212 477T229 418V0ZM584 743Q584 674 555 637T474 600Q451 600 431 607T391 622T355 637T321 644Q287 644 278 596L204 607Q204 676 233 713T314 750Q337 750 357 743T397 728T433 713T467 706Q501 706 510 754L584 743Z"/>
<glyph unicode="Ī" glyph-name="Imacron" horiz-adv-x="390" d="M120 585H52V684H338V585H270V99H338V0H52V99H120V585ZM300 809V911H607V809H300Z"/>
<glyph unicode="ī" glyph-name="imacron" horiz-adv-x="295" d="M229 0H90V397H24V484Q39 486 56 487T90 490T122 493T147 494Q195 494 212 477T229 418V0ZM243 619V721H550V619H243Z"/>
<glyph unicode="Ĭ" glyph-name="Ibreve" horiz-adv-x="390" d="M120 585H52V684H338V585H270V99H338V0H52V99H120V585ZM377 947Q382 909 400 889T454 868Q490 868 508 888T531 947L620 944Q620 911 612 881T585 828T533 792T454 778Q407 778 375 791T324 828T296 881T287 944L377 947V947Z"/>
<glyph unicode="ĭ" glyph-name="ibreve" horiz-adv-x="295" d="M229 0H90V397H24V484Q39 486 56 487T90 490T122 493T147 494Q195 494 212 477T229 418V0ZM323 757Q328 719 346 699T400 678Q436 678 454 698T477 757L566 754Q566 721 558 691T531 638T479 602T400 588Q353 588 321 601T270 638T242 691T233 754L323 757V757Z"/>
<glyph unicode="Į" glyph-name="Iogonek" horiz-adv-x="390" d="M86 -132Q86 -95 107 -62T162 0H52V99H120V585H52V684H338V585H270V99H338V0H253Q218 -37 202 -65T186 -122Q186 -167 247 -167H303V-234Q280 -242 256 -245T211 -249Q157 -249 122 -220T86 -132Z"/>
<glyph unicode="į" glyph-name="iogonek" horiz-adv-x="295" d="M10 -132Q10 -94 32 -60T90 3V397H24V484Q39 486 56 487T89 490T121 493T147 494Q195 494 212 477T229 419V0H201Q185 0 177 -3T159 -17Q133 -46 122 -72T110 -122Q110 -167 171 -167H227V-234Q204 -242 180 -245T135 -249Q81 -249 46 -220T10 -132ZM229 640Q229 603 211 588T156 572H149Q112 572 94 587T76 640V653Q76 690 94 706T149 722H156Q192 722 210 706T229 653V640Z"/>
<glyph unicode="İ" glyph-name="Idotaccent" horiz-adv-x="390" d="M120 585H52V684H338V585H270V99H338V0H52V99H120V585ZM531 862Q531 824 512 808T456 791H450Q412 791 394 807T375 862V873Q375 912 393 928T450 944H456Q493 944 512 928T531 873V862Z"/>
<glyph unicode="ı" glyph-name="dotlessi" horiz-adv-x="295" d="M229 0H90V397H24V484Q39 486 56 487T90 490T122 493T147 494Q195 494 212 477T229 418V0Z"/>
<glyph unicode="Ĳ" glyph-name="IJ" horiz-adv-x="869" d="M120 585H52V684H338V585H270V99H338V0H52V99H120V585ZM548 104Q574 104 590 108T618 124Q637 146 637 199V585H474V684H787V196Q787 131 776 94T738 30Q693 -14 589 -14Q555 -14 511 -9T432 3V104H548Z"/>
<glyph unicode="ĳ" glyph-name="ij" horiz-adv-x="590" d="M229 0H90V397H24V484Q39 486 56 487T89 490T121 493T147 494Q195 494 212 477T229 419V0ZM229 640Q229 603 211 588T156 572H149Q112 572 94 587T76 640V653Q76 690 94 706T149 722H156Q192 722 210 706T229 653V640ZM524 -60Q524 -106 514 -137T483 -190Q444 -229 370 -229Q344 -229 313 -226T256 -216V-124H305Q331 -124 346 -120T371 -107Q379 -98 382 -84T385 -47V397H319V484Q334 486 351 488T385 491T417 493T442 494Q490 494 507 477T524 418V-60ZM524 641Q524 603 506 588T451 572H444Q407 572 389 587T371 641V653Q371 691 389 706T444 722H451Q487 722 505 707T524 653V641Z"/>
<glyph unicode="Ĵ" glyph-name="Jcircumflex" horiz-adv-x="479" d="M158 104Q184 104 200 108T228 124Q247 146 247 199V585H84V684H397V196Q397 131 386 94T348 30Q303 -14 199 -14Q165 -14 121 -9T42 3V104H158ZM429 817L377 764L249 866L121 764L69 817L171 935Q186 953 199 960T238 967H260Q286 967 299 960T327 935L429 817Z"/>
<glyph unicode="ĵ" glyph-name="jcircumflex" horiz-adv-x="295" d="M229 -60Q229 -106 219 -137T188 -190Q149 -229 75 -229Q49 -229 18 -226T-39 -216V-124H10Q36 -124 51 -120T76 -107Q84 -98 87 -84T90 -47V397H24V484Q39 486 56 488T90 491T122 493T147 494Q195 494 212 477T229 418V-60ZM325 627L273 574L145 676L17 574L-35 627L67 745Q82 763 95 770T134 777H156Q182 777 195 770T223 745L325 627Z"/>
<glyph unicode="Ķ" glyph-name="Kcommaaccent" horiz-adv-x="717" d="M268 384L504 647Q524 670 541 677T588 684H690V585H600L423 406L622 99H702V2Q674 -1 639 -3T581 -6Q557 -6 541 -3T514 8T493 28T473 56L322 302L268 244V99H337V0H50V99H118V585H50V684H337V585H268V384ZM314 -151Q314 -118 331 -99T384 -80H391Q425 -80 443 -99T462 -153V-178Q462 -224 459 -265T447 -330Q439 -353 410 -353H373V-226Q342 -215 328 -198T314 -152V-151Z"/>
<glyph unicode="ķ" glyph-name="kcommaaccent" horiz-adv-x="566" d="M211 300L338 453Q355 474 371 479T414 485H524V397H442L357 311L498 93H566V8Q547 3 516 0T463 -4Q445 -4 432 -2T409 8T389 25T369 53L261 221L211 172V0H72V627H6V714Q21 716 38 717T71 720T103 723T129 724Q177 724 194 707T211 649V300ZM240 -151Q240 -118 257 -99T310 -80H317Q351 -80 369 -99T388 -153V-178Q388 -224 385 -265T373 -330Q365 -353 336 -353H299V-226Q268 -215 254 -198T240 -152V-151Z"/>
<glyph unicode="ĸ" glyph-name="kgreenlandic" horiz-adv-x="579" d="M224 300L351 453Q368 474 384 479T427 485H537V397H455L370 311L511 93H579V8Q560 3 529 0T476 -4Q458 -4 445 -2T422 8T402 25T382 53L274 221L224 172V0H85V397H19V484Q34 486 51 487T84 490T116 493T142 494Q190 494 207 477T224 419V300Z"/>
<glyph unicode="Ĺ" glyph-name="Lacute" horiz-adv-x="611" d="M50 0V99H118V585H50V684H337V585H268V99H465Q465 109 467 123T471 151T477 178T484 197H581V18Q581 6 575 3T542 0H50ZM324 826L486 977Q516 1004 536 975L587 904L376 762L324 826Z"/>
<glyph unicode="ĺ" glyph-name="lacute" horiz-adv-x="275" d="M211 0H72V627H6V714Q21 716 38 717T71 720T103 723T129 724Q177 724 194 707T211 649V0ZM8 823L170 974Q200 1001 220 972L271 901L60 759L8 823Z"/>
<glyph unicode="Ļ" glyph-name="Lcommaaccent" horiz-adv-x="611" d="M50 0V99H118V585H50V684H337V585H268V99H465Q465 109 467 123T471 151T477 178T484 197H581V18Q581 6 575 3T542 0H50ZM260 -151Q260 -118 277 -99T330 -80H337Q371 -80 389 -99T408 -153V-178Q408 -224 405 -265T393 -330Q385 -353 356 -353H319V-226Q288 -215 274 -198T260 -152V-151Z"/>
<glyph unicode="ļ" glyph-name="lcommaaccent" horiz-adv-x="275" d="M211 0H72V627H6V714Q21 716 38 717T71 720T103 723T129 724Q177 724 194 707T211 649V0ZM322 -151Q322 -118 339 -99T392 -80H399Q433 -80 451 -99T470 -153V-178Q470 -224 467 -265T455 -330Q447 -353 418 -353H381V-226Q350 -215 336 -198T322 -152V-151Z"/>
<glyph unicode="Ľ" glyph-name="Lcaron" horiz-adv-x="611" d="M50 0V99H118V585H50V684H337V585H268V99H465Q465 109 467 123T471 151T477 178T484 197H581V18Q581 6 575 3T542 0H50ZM387 626Q387 659 404 678T457 697H464Q498 697 516 678T535 624V599Q535 553 532 512T520 447Q512 424 483 424H446V551Q415 562 401 579T387 625V626Z"/>
<glyph unicode="ľ" glyph-name="lcaron" horiz-adv-x="438" d="M211 0H72V627H6V714Q21 716 38 717T71 720T103 723T129 724Q177 724 194 707T211 649V0ZM260 626Q260 659 277 678T330 697H337Q371 697 389 678T408 624V599Q408 553 405 512T393 447Q385 424 356 424H319V551Q288 562 274 579T260 625V626Z"/>
<glyph unicode="Ŀ" glyph-name="Ldot" horiz-adv-x="611" d="M50 0V99H118V585H50V684H337V585H268V99H465Q465 109 467 123T471 151T477 178T484 197H581V18Q581 6 575 3T542 0H50ZM544 384Q544 346 525 330T469 313H463Q425 313 407 329T388 384V395Q388 434 406 450T463 466H469Q506 466 525 450T544 395V384Z"/>
<glyph unicode="ŀ" glyph-name="ldot" horiz-adv-x="441" d="M211 0H72V627H6V714Q21 716 38 717T71 720T103 723T129 724Q177 724 194 707T211 649V0ZM431 362Q431 324 412 308T356 291H350Q312 291 294 307T275 362V373Q275 412 293 428T350 444H356Q393 444 412 428T431 373V362Z"/>
<glyph unicode="Ł" glyph-name="Lslash" horiz-adv-x="611" d="M268 312V99H465Q465 109 467 123T471 151T477 178T484 197H581V18Q581 6 575 3T542 0H50V99H118V227L53 190L10 273L118 334V585H50V684H337V585H268V419L392 489L438 408L268 312Z"/>
<glyph unicode="ł" glyph-name="lslash" horiz-adv-x="387" d="M252 357V0H113V266L55 228L16 295L113 358V627H47V714Q62 716 79 717T112 720T144 723T170 724Q218 724 235 707T252 649V448L329 499L371 435L252 357Z"/>
<glyph unicode="Ń" glyph-name="Nacute" horiz-adv-x="789" d="M559 225V585H491V684H751V585H682V0H568L242 437V99H310V0H50V99H119V585H50V684H172Q187 684 197 683T214 678T228 668T241 653L559 225ZM283 826L445 977Q475 1004 495 975L546 904L335 762L283 826Z"/>
<glyph unicode="ń" glyph-name="nacute" horiz-adv-x="620" d="M602 93V5Q588 3 572 2T539 -1T507 -4T482 -5Q435 -5 418 13T401 71V320Q401 354 385 369Q375 378 359 381T323 384Q300 384 274 382T227 374V0H88V397H19V484Q48 489 83 491T144 494Q181 494 199 484T225 453Q258 476 301 490T389 504Q427 504 455 492T504 458Q540 416 540 339V93H602ZM208 636L370 787Q400 814 420 785L471 714L260 572L208 636Z"/>
<glyph unicode="Ņ" glyph-name="Ncommaaccent" horiz-adv-x="789" d="M559 225V585H491V684H751V585H682V0H568L242 437V99H310V0H50V99H119V585H50V684H172Q187 684 197 683T214 678T228 668T241 653L559 225ZM320 -151Q320 -118 337 -99T390 -80H397Q431 -80 449 -99T468 -153V-178Q468 -224 465 -265T453 -330Q445 -353 416 -353H379V-226Q348 -215 334 -198T320 -152V-151Z"/>
<glyph unicode="ņ" glyph-name="ncommaaccent" horiz-adv-x="620" d="M602 93V5Q588 3 572 2T539 -1T507 -4T482 -5Q435 -5 418 13T401 71V320Q401 354 385 369Q375 378 359 381T323 384Q300 384 274 382T227 374V0H88V397H19V484Q48 489 83 491T144 494Q181 494 199 484T225 453Q258 476 301 490T389 504Q427 504 455 492T504 458Q540 416 540 339V93H602ZM246 -151Q246 -118 263 -99T316 -80H323Q357 -80 375 -99T394 -153V-178Q394 -224 391 -265T379 -330Q371 -353 342 -353H305V-226Q274 -215 260 -198T246 -152V-151Z"/>
<glyph unicode="Ň" glyph-name="Ncaron" horiz-adv-x="789" d="M559 225V585H491V684H751V585H682V0H568L242 437V99H310V0H50V99H119V585H50V684H172Q187 684 197 683T214 678T228 668T241 653L559 225ZM472 809Q457 791 444 784T405 777H383Q357 777 344 784T316 809L214 927L266 980L394 878L522 980L574 927L472 809Z"/>
<glyph unicode="ň" glyph-name="ncaron" horiz-adv-x="620" d="M602 93V5Q588 3 572 2T539 -1T507 -4T482 -5Q435 -5 418 13T401 71V320Q401 354 385 369Q375 378 359 381T323 384Q300 384 274 382T227 374V0H88V397H19V484Q48 489 83 491T144 494Q181 494 199 484T225 453Q258 476 301 490T389 504Q427 504 455 492T504 458Q540 416 540 339V93H602ZM408 619Q393 601 380 594T341 587H319Q293 587 280 594T252 619L150 737L202 790L330 688L458 790L510 737L408 619Z"/>
<glyph unicode="ŉ" glyph-name="napostrophe" horiz-adv-x="817" d="M799 93V5Q785 3 769 2T736 -1T704 -4T679 -5Q632 -5 615 13T598 71V320Q598 354 582 369Q572 378 556 381T520 384Q497 384 471 382T424 374V0H285V397H216V484Q245 489 280 491T341 494Q378 494 396 484T422 453Q455 476 498 490T586 504Q624 504 652 492T701 458Q737 416 737 339V93H799ZM268 622Q268 658 286 677T341 697H348Q384 697 403 679T423 622V595Q423 542 420 497T407 426Q403 414 394 408T368 402H327V544Q294 555 281 572T268 621V622Z"/>
<glyph unicode="Ŋ" glyph-name="Eng" horiz-adv-x="789" d="M559 225V585H491V684H751V585H682V-29Q682 -94 671 -131T633 -195Q610 -218 574 -228T494 -239Q457 -239 422 -233T367 -222V-124H470Q496 -124 512 -120T540 -104Q559 -82 559 -29V12L242 437V99H310V0H50V99H119V585H50V684H172Q187 684 197 683T214 678T228 668T241 653L559 225Z"/>
<glyph unicode="ŋ" glyph-name="eng" horiz-adv-x="606" d="M401 320Q401 354 385 369Q375 378 359 381T323 384Q300 384 274 382T227 374V0H88V397H19V484Q48 489 83 491T144 494Q181 494 199 484T225 453Q258 476 301 490T389 504Q427 504 455 492T504 458Q540 416 540 339V-60Q540 -106 530 -137T499 -190Q460 -229 386 -229Q360 -229 329 -226T272 -216V-124H321Q347 -124 362 -120T387 -107Q395 -98 398 -84T401 -47V320Z"/>
<glyph unicode="Ō" glyph-name="Omacron" horiz-adv-x="686" d="M644 341Q644 167 570 77T343 -14Q191 -14 117 76T42 341Q42 515 116 606T343 697Q495 697 569 606T644 341ZM489 341Q489 465 455 522T343 579Q266 579 232 522T197 341Q197 217 231 161T343 104Q420 104 454 160T489 341ZM189 809V911H496V809H189Z"/>
<glyph unicode="ō" glyph-name="omacron" horiz-adv-x="560" d="M527 245Q527 186 512 138T467 57T390 5T280 -14Q217 -14 171 4T94 56T48 138T33 245Q33 304 48 352T93 433T170 485T280 504Q343 504 389 486T466 434T512 352T527 245ZM382 245Q382 321 359 358T280 395Q225 395 202 358T178 245Q178 169 201 132T280 95Q335 95 358 132T382 245ZM126 619V721H433V619H126Z"/>
<glyph unicode="Ŏ" glyph-name="Obreve" horiz-adv-x="686" d="M644 341Q644 167 570 77T343 -14Q191 -14 117 76T42 341Q42 515 116 606T343 697Q495 697 569 606T644 341ZM489 341Q489 465 455 522T343 579Q266 579 232 522T197 341Q197 217 231 161T343 104Q420 104 454 160T489 341ZM266 947Q271 909 289 889T343 868Q379 868 397 888T420 947L509 944Q509 911 501 881T474 828T422 792T343 778Q296 778 264 791T213 828T185 881T176 944L266 947V947Z"/>
<glyph unicode="ŏ" glyph-name="obreve" horiz-adv-x="560" d="M527 245Q527 186 512 138T467 57T390 5T280 -14Q217 -14 171 4T94 56T48 138T33 245Q33 304 48 352T93 433T170 485T280 504Q343 504 389 486T466 434T512 352T527 245ZM382 245Q382 321 359 358T280 395Q225 395 202 358T178 245Q178 169 201 132T280 95Q335 95 358 132T382 245ZM203 757Q208 719 226 699T280 678Q316 678 334 698T357 757L446 754Q446 721 438 691T411 638T359 602T280 588Q233 588 201 601T150 638T122 691T113 754L203 757V757Z"/>
<glyph unicode="Ő" glyph-name="Ohungarumlaut" horiz-adv-x="686" d="M644 341Q644 167 570 77T343 -14Q191 -14 117 76T42 341Q42 515 116 606T343 697Q495 697 569 606T644 341ZM489 341Q489 465 455 522T343 579Q266 579 232 522T197 341Q197 217 231 161T343 104Q420 104 454 160T489 341ZM153 814L275 991Q286 1007 298 1009T326 998L380 945L210 770L153 814ZM347 814L470 991Q482 1007 494 1009T520 998L573 945L405 770L347 814Z"/>
<glyph unicode="ő" glyph-name="ohungarumlaut" horiz-adv-x="560" d="M527 245Q527 186 512 138T467 57T390 5T280 -14Q217 -14 171 4T94 56T48 138T33 245Q33 304 48 352T93 433T170 485T280 504Q343 504 389 486T466 434T512 352T527 245ZM382 245Q382 321 359 358T280 395Q225 395 202 358T178 245Q178 169 201 132T280 95Q335 95 358 132T382 245ZM90 624L212 801Q223 817 235 819T263 808L317 755L147 580L90 624ZM284 624L407 801Q419 817 431 819T457 808L510 755L342 580L284 624Z"/>
<glyph unicode="Œ" glyph-name="OE" horiz-adv-x="988" d="M900 684Q925 684 932 681T939 666V489H842Q839 496 836 508T830 533T825 561T823 585H613V400H805V294H613V99H828Q828 109 830 123T834 150T840 176T847 195H944V18Q944 6 937 3T905 0H374Q283 0 223 19T124 77Q82 119 62 185T42 345Q42 439 64 503T127 607Q169 650 235 667T399 684H900ZM462 583H405Q347 583 310 573T250 538Q224 510 211 464T198 345Q198 282 206 238T235 162Q278 101 384 101H462V583Z"/>
<glyph unicode="œ" glyph-name="oe" horiz-adv-x="878" d="M528 201Q530 180 537 160T558 125Q575 109 603 101T680 93H821V5Q786 -2 739 -8T642 -14Q577 -14 532 0T454 44Q423 15 380 1T280 -14Q217 -14 171 4T94 56T48 138T33 245Q33 304 48 352T93 433T170 485T280 504Q390 504 452 447Q513 504 619 504Q729 504 785 445T841 257V212Q841 201 832 201H528ZM381 245Q381 321 358 358T280 395Q225 395 202 358T178 245Q178 169 201 132T280 95Q334 95 357 132T381 245ZM706 294Q703 342 683 370T618 399Q572 399 551 372T528 294H706Z"/>
<glyph unicode="Ŕ" glyph-name="Racute" horiz-adv-x="705" d="M330 99V0H50V99H118V585H50V684H351Q434 684 486 672T573 623Q597 597 610 559T623 468Q623 399 591 351T503 277L600 99H671V2Q641 -1 608 -3T554 -6Q513 -6 493 6T456 48L352 253H268V99H330ZM268 353H354Q386 353 407 359T442 379Q471 406 471 470Q471 531 446 558Q432 573 410 579T348 585H268V353ZM231 826L393 977Q423 1004 443 975L494 904L283 762L231 826Z"/>
<glyph unicode="ŕ" glyph-name="racute" horiz-adv-x="387" d="M224 450Q253 475 285 489T352 504Q367 504 373 502T379 490V380H326Q297 380 275 378T227 369V0H88V397H19V484Q48 489 82 491T143 494Q180 494 199 485T224 450ZM115 636L277 787Q307 814 327 785L378 714L167 572L115 636Z"/>
<glyph unicode="Ŗ" glyph-name="Rcommaaccent" horiz-adv-x="705" d="M330 99V0H50V99H118V585H50V684H351Q434 684 486 672T573 623Q597 597 610 559T623 468Q623 399 591 351T503 277L600 99H671V2Q641 -1 608 -3T554 -6Q513 -6 493 6T456 48L352 253H268V99H330ZM268 353H354Q386 353 407 359T442 379Q471 406 471 470Q471 531 446 558Q432 573 410 579T348 585H268V353ZM298 -151Q298 -118 315 -99T368 -80H375Q409 -80 427 -99T446 -153V-178Q446 -224 443 -265T431 -330Q423 -353 394 -353H357V-226Q326 -215 312 -198T298 -152V-151Z"/>
<glyph unicode="ŗ" glyph-name="rcommaaccent" horiz-adv-x="387" d="M224 450Q253 475 285 489T352 504Q367 504 373 502T379 490V380H326Q297 380 275 378T227 369V0H88V397H19V484Q48 489 82 491T143 494Q180 494 199 485T224 450ZM338 -151Q338 -118 355 -99T408 -80H415Q449 -80 467 -99T486 -153V-178Q486 -224 483 -265T471 -330Q463 -353 434 -353H397V-226Q366 -215 352 -198T338 -152V-151Z"/>
<glyph unicode="Ř" glyph-name="Rcaron" horiz-adv-x="705" d="M330 99V0H50V99H118V585H50V684H351Q434 684 486 672T573 623Q597 597 610 559T623 468Q623 399 591 351T503 277L600 99H671V2Q641 -1 608 -3T554 -6Q513 -6 493 6T456 48L352 253H268V99H330ZM268 353H354Q386 353 407 359T442 379Q471 406 471 470Q471 531 446 558Q432 573 410 579T348 585H268V353ZM434 809Q419 791 406 784T367 777H345Q319 777 306 784T278 809L176 927L228 980L356 878L484 980L536 927L434 809Z"/>
<glyph unicode="ř" glyph-name="rcaron" horiz-adv-x="387" d="M224 450Q253 475 285 489T352 504Q367 504 373 502T379 490V380H326Q297 380 275 378T227 369V0H88V397H19V484Q48 489 82 491T143 494Q180 494 199 485T224 450ZM302 619Q287 601 274 594T235 587H213Q187 587 174 594T146 619L44 737L96 790L224 688L352 790L404 737L302 619Z"/>
<glyph unicode="Ś" glyph-name="Sacute" horiz-adv-x="597" d="M48 496Q48 541 61 574T100 633Q132 664 183 680T305 697Q330 697 356 695T406 689T452 681T487 671Q504 665 508 659T513 637V497H412Q406 510 401 535T393 580Q354 586 306 586Q276 586 251 581T209 561Q188 543 188 509Q188 474 211 457T287 422L365 399Q416 384 451 366T509 321Q550 274 550 195Q550 151 537 115T497 53Q465 20 412 3T280 -14Q255 -14 229 -13T177 -8T130 -1T92 7Q72 12 67 21T61 47V189H166Q172 177 177 152T185 108Q199 103 228 101T285 98Q357 98 387 125Q410 145 410 182Q410 216 390 233T324 265L234 291Q188 305 154 321T97 359Q74 382 61 416T48 496ZM167 826L329 977Q359 1004 379 975L430 904L219 762L167 826Z"/>
<glyph unicode="ś" glyph-name="sacute" horiz-adv-x="523" d="M158 154Q161 145 164 134Q166 125 168 114T173 92Q212 86 257 86Q308 86 330 97T352 136Q352 157 338 166T291 181L210 194Q162 202 133 214T87 243Q52 278 52 343Q52 380 64 406T96 453Q125 481 172 492T274 504Q317 504 361 499T433 486Q447 482 451 476T455 458V335H359Q353 348 349 367T343 401Q327 403 307 403T266 404Q183 404 183 357Q183 336 196 325T249 308L326 296Q375 288 402 277T448 247Q483 210 483 147Q483 70 426 28T260 -14Q197 -14 151 -10T81 3Q67 8 64 16T61 35V154H158ZM138 636L300 787Q330 814 350 785L401 714L190 572L138 636Z"/>
<glyph unicode="Ŝ" glyph-name="Scircumflex" horiz-adv-x="597" d="M48 496Q48 541 61 574T100 633Q132 664 183 680T305 697Q330 697 356 695T406 689T452 681T487 671Q504 665 508 659T513 637V497H412Q406 510 401 535T393 580Q354 586 306 586Q276 586 251 581T209 561Q188 543 188 509Q188 474 211 457T287 422L365 399Q416 384 451 366T509 321Q550 274 550 195Q550 151 537 115T497 53Q465 20 412 3T280 -14Q255 -14 229 -13T177 -8T130 -1T92 7Q72 12 67 21T61 47V189H166Q172 177 177 152T185 108Q199 103 228 101T285 98Q357 98 387 125Q410 145 410 182Q410 216 390 233T324 265L234 291Q188 305 154 321T97 359Q74 382 61 416T48 496ZM478 817L426 764L298 866L170 764L118 817L220 935Q235 953 248 960T287 967H309Q335 967 348 960T376 935L478 817Z"/>
<glyph unicode="ŝ" glyph-name="scircumflex" horiz-adv-x="523" d="M158 154Q161 145 164 134Q166 125 168 114T173 92Q212 86 257 86Q308 86 330 97T352 136Q352 157 338 166T291 181L210 194Q162 202 133 214T87 243Q52 278 52 343Q52 380 64 406T96 453Q125 481 172 492T274 504Q317 504 361 499T433 486Q447 482 451 476T455 458V335H359Q353 348 349 367T343 401Q327 403 307 403T266 404Q183 404 183 357Q183 336 196 325T249 308L326 296Q375 288 402 277T448 247Q483 210 483 147Q483 70 426 28T260 -14Q197 -14 151 -10T81 3Q67 8 64 16T61 35V154H158ZM447 627L395 574L267 676L139 574L87 627L189 745Q204 763 217 770T256 777H278Q304 777 317 770T345 745L447 627Z"/>
<glyph unicode="Ş" glyph-name="Scedilla" horiz-adv-x="597" d="M359 -49Q383 -59 398 -68T423 -87T435 -110T439 -140Q439 -188 412 -218Q398 -235 373 -243T320 -252Q294 -252 272 -248T231 -237V-173H300Q344 -173 344 -150Q344 -141 337 -134T298 -116L288 -113Q259 -103 246 -91T233 -53Q233 -33 244 -13Q201 -11 160 -6T92 7Q72 12 67 21T61 47V189H166Q172 177 177 152T185 108Q199 103 228 101T285 98Q357 98 387 125Q410 145 410 182Q410 216 390 233T324 265L234 291Q188 305 154 321T97 359Q74 382 61 416T48 496Q48 541 61 574T100 633Q132 664 183 680T305 697Q330 697 356 695T406 689T452 681T487 671Q504 665 508 659T513 637V497H412Q406 510 401 535T393 580Q354 586 306 586Q276 586 251 581T209 561Q188 543 188 509Q188 474 211 457T287 422L365 399Q416 384 451 366T509 321Q550 274 550 195Q550 151 537 115T497 53Q469 24 426 8T321 -13Q320 -16 320 -21Q320 -29 325 -33T348 -45L359 -49Z"/>
<glyph unicode="ş" glyph-name="scedilla" horiz-adv-x="523" d="M325 -49Q349 -59 364 -68T389 -87T401 -110T405 -140Q405 -188 378 -218Q364 -235 339 -243T286 -252Q260 -252 238 -248T197 -237V-173H266Q310 -173 310 -150Q310 -141 303 -134T264 -116L254 -113Q225 -103 212 -91T199 -53Q199 -33 211 -13Q166 -11 133 -7T81 3Q67 8 64 16T61 35V154H158Q161 145 164 134Q166 125 168 114T173 92Q212 86 257 86Q308 86 330 97T352 136Q352 157 338 166T291 181L210 194Q162 202 133 214T87 243Q52 278 52 343Q52 380 64 406T96 453Q125 481 172 492T274 504Q317 504 361 499T433 486Q447 482 451 476T455 458V335H359Q353 348 349 367T343 401Q327 403 307 403T266 404Q183 404 183 357Q183 336 196 325T249 308L326 296Q375 288 402 277T448 247Q483 210 483 147Q483 75 433 34T287 -13Q286 -16 286 -21Q286 -29 291 -33T314 -45L325 -49Z"/>
<glyph unicode="Š" glyph-name="Scaron" horiz-adv-x="597" d="M48 496Q48 541 61 574T100 633Q132 664 183 680T305 697Q330 697 356 695T406 689T452 681T487 671Q504 665 508 659T513 637V497H412Q406 510 401 535T393 580Q354 586 306 586Q276 586 251 581T209 561Q188 543 188 509Q188 474 211 457T287 422L365 399Q416 384 451 366T509 321Q550 274 550 195Q550 151 537 115T497 53Q465 20 412 3T280 -14Q255 -14 229 -13T177 -8T130 -1T92 7Q72 12 67 21T61 47V189H166Q172 177 177 152T185 108Q199 103 228 101T285 98Q357 98 387 125Q410 145 410 182Q410 216 390 233T324 265L234 291Q188 305 154 321T97 359Q74 382 61 416T48 496ZM376 809Q361 791 348 784T309 777H287Q261 777 248 784T220 809L118 927L170 980L298 878L426 980L478 927L376 809Z"/>
<glyph unicode="š" glyph-name="scaron" horiz-adv-x="523" d="M158 154Q161 145 164 134Q166 125 168 114T173 92Q212 86 257 86Q308 86 330 97T352 136Q352 157 338 166T291 181L210 194Q162 202 133 214T87 243Q52 278 52 343Q52 380 64 406T96 453Q125 481 172 492T274 504Q317 504 361 499T433 486Q447 482 451 476T455 458V335H359Q353 348 349 367T343 401Q327 403 307 403T266 404Q183 404 183 357Q183 336 196 325T249 308L326 296Q375 288 402 277T448 247Q483 210 483 147Q483 70 426 28T260 -14Q197 -14 151 -10T81 3Q67 8 64 16T61 35V154H158ZM344 619Q329 601 316 594T277 587H255Q229 587 216 594T188 619L86 737L138 790L266 688L394 790L446 737L344 619Z"/>
<glyph unicode="Ţ" glyph-name="Tcommaaccent" horiz-adv-x="674" d="M607 684Q632 684 639 681T646 666V486H549Q546 493 543 505T537 532T532 560T530 585H412V99H480V0H194V99H262V585H144Q144 575 142 561T138 532T132 506T125 486H28V666Q28 678 35 681T67 684H607ZM263 -151Q263 -118 280 -99T333 -80H340Q374 -80 392 -99T411 -153V-178Q411 -224 408 -265T396 -330Q388 -353 359 -353H322V-226Q291 -215 277 -198T263 -152V-151Z"/>
<glyph unicode="ţ" glyph-name="tcommaaccent" horiz-adv-x="382" d="M2 479L85 491V599Q117 609 154 614T224 620V490H340V397H224V168Q224 147 226 133T235 110T256 97T294 93H364V2Q352 -2 336 -5T303 -10T267 -13T232 -14Q151 -14 118 26T85 148V397H2V479ZM150 -151Q150 -118 167 -99T220 -80H227Q261 -80 279 -99T298 -153V-178Q298 -224 295 -265T283 -330Q275 -353 246 -353H209V-226Q178 -215 164 -198T150 -152V-151Z"/>
<glyph unicode="Ť" glyph-name="Tcaron" horiz-adv-x="674" d="M607 684Q632 684 639 681T646 666V486H549Q546 493 543 505T537 532T532 560T530 585H412V99H480V0H194V99H262V585H144Q144 575 142 561T138 532T132 506T125 486H28V666Q28 678 35 681T67 684H607ZM415 809Q400 791 387 784T348 777H326Q300 777 287 784T259 809L157 927L209 980L337 878L465 980L517 927L415 809Z"/>
<glyph unicode="ť" glyph-name="tcaron" horiz-adv-x="382" d="M2 479L85 491V599Q117 609 154 614T224 620V490H340V397H224V168Q224 147 226 133T235 110T256 97T294 93H364V2Q352 -2 336 -5T303 -10T267 -13T232 -14Q151 -14 118 26T85 148V397H2V479ZM245 766Q245 799 262 818T315 837H322Q356 837 374 818T393 764V739Q393 693 390 652T378 587Q370 564 341 564H304V691Q273 702 259 719T245 765V766Z"/>
<glyph unicode="Ŧ" glyph-name="Tbar" horiz-adv-x="674" d="M607 684Q632 684 639 681T646 666V486H549Q546 493 543 505T537 532T532 560T530 585H412V379H547V282H412V99H480V0H194V99H262V282H127V379H262V585H144Q144 575 142 561T138 532T132 506T125 486H28V666Q28 678 35 681T67 684H607Z"/>
<glyph unicode="ŧ" glyph-name="tbar" horiz-adv-x="382" d="M2 479L85 491V599Q117 609 154 614T224 620V490H340V397H224V296H329V213H224V168Q224 147 226 133T235 110T256 97T294 93H364V2Q352 -2 336 -5T303 -10T267 -13T232 -14Q151 -14 118 26T85 148V213H7V285L85 296V397H2V479Z"/>
<glyph unicode="Ũ" glyph-name="Utilde" horiz-adv-x="741" d="M514 585H446V684H715V585H646V244Q646 178 630 133T582 55Q514 -14 375 -14Q301 -14 246 2T155 54Q125 84 110 128T94 241V585H26V684H313V585H244V242Q244 200 251 176T279 135Q296 120 321 113T379 105Q412 105 438 112T481 137Q514 168 514 240V585ZM570 933Q570 864 541 827T460 790Q437 790 417 797T377 812T341 827T307 834Q273 834 264 786L190 797Q190 866 219 903T300 940Q323 940 343 933T383 918T419 903T453 896Q487 896 496 944L570 933Z"/>
<glyph unicode="ũ" glyph-name="utilde" horiz-adv-x="611" d="M472 -4Q436 -4 418 6T394 38Q361 14 318 0T231 -14Q193 -14 165 -2T117 32Q98 53 89 83T80 151V397H18V485Q47 489 82 491T138 494Q185 494 202 477T219 419V170Q219 137 235 121Q245 112 261 109T298 106Q320 106 344 108T391 116V397H332V490H530V93H592V6Q577 4 561 2T528 -1T497 -3T472 -4ZM495 743Q495 674 466 637T385 600Q362 600 342 607T302 622T266 637T232 644Q198 644 189 596L115 607Q115 676 144 713T225 750Q248 750 268 743T308 728T344 713T378 706Q412 706 421 754L495 743Z"/>
<glyph unicode="Ū" glyph-name="Umacron" horiz-adv-x="741" d="M514 585H446V684H715V585H646V244Q646 178 630 133T582 55Q514 -14 375 -14Q301 -14 246 2T155 54Q125 84 110 128T94 241V585H26V684H313V585H244V242Q244 200 251 176T279 135Q296 120 321 113T379 105Q412 105 438 112T481 137Q514 168 514 240V585ZM227 809V911H534V809H227Z"/>
<glyph unicode="ū" glyph-name="umacron" horiz-adv-x="611" d="M472 -4Q436 -4 418 6T394 38Q361 14 318 0T231 -14Q193 -14 165 -2T117 32Q98 53 89 83T80 151V397H18V485Q47 489 82 491T138 494Q185 494 202 477T219 419V170Q219 137 235 121Q245 112 261 109T298 106Q320 106 344 108T391 116V397H332V490H530V93H592V6Q577 4 561 2T528 -1T497 -3T472 -4ZM152 619V721H459V619H152Z"/>
<glyph unicode="Ŭ" glyph-name="Ubreve" horiz-adv-x="741" d="M514 585H446V684H715V585H646V244Q646 178 630 133T582 55Q514 -14 375 -14Q301 -14 246 2T155 54Q125 84 110 128T94 241V585H26V684H313V585H244V242Q244 200 251 176T279 135Q296 120 321 113T379 105Q412 105 438 112T481 137Q514 168 514 240V585ZM304 947Q309 909 327 889T381 868Q417 868 435 888T458 947L547 944Q547 911 539 881T512 828T460 792T381 778Q334 778 302 791T251 828T223 881T214 944L304 947V947Z"/>
<glyph unicode="ŭ" glyph-name="ubreve" horiz-adv-x="611" d="M472 -4Q436 -4 418 6T394 38Q361 14 318 0T231 -14Q193 -14 165 -2T117 32Q98 53 89 83T80 151V397H18V485Q47 489 82 491T138 494Q185 494 202 477T219 419V170Q219 137 235 121Q245 112 261 109T298 106Q320 106 344 108T391 116V397H332V490H530V93H592V6Q577 4 561 2T528 -1T497 -3T472 -4ZM229 757Q234 719 252 699T306 678Q342 678 360 698T383 757L472 754Q472 721 464 691T437 638T385 602T306 588Q259 588 227 601T176 638T148 691T139 754L229 757V757Z"/>
<glyph unicode="Ů" glyph-name="Uring" horiz-adv-x="741" d="M514 585H446V684H715V585H646V244Q646 178 630 133T582 55Q514 -14 375 -14Q301 -14 246 2T155 54Q125 84 110 128T94 241V585H26V684H313V585H244V242Q244 200 251 176T279 135Q296 120 321 113T379 105Q412 105 438 112T481 137Q514 168 514 240V585ZM382 837Q409 837 422 849T435 891V895Q435 927 422 937T382 948H379Q351 948 338 938T324 895V891Q324 861 337 849T379 837H382ZM384 1017Q444 1017 476 990T509 901V887Q509 826 477 799T384 771H377Q316 771 284 798T251 887V901Q251 963 283 990T377 1017H384Z"/>
<glyph unicode="ů" glyph-name="uring" horiz-adv-x="611" d="M472 -4Q436 -4 418 6T394 38Q361 14 318 0T231 -14Q193 -14 165 -2T117 32Q98 53 89 83T80 151V397H18V485Q47 489 82 491T138 494Q185 494 202 477T219 419V170Q219 137 235 121Q245 112 261 109T298 106Q320 106 344 108T391 116V397H332V490H530V93H592V6Q577 4 561 2T528 -1T497 -3T472 -4ZM307 647Q334 647 347 659T360 701V705Q360 737 347 747T307 758H304Q276 758 263 748T249 705V701Q249 671 262 659T304 647H307ZM309 827Q369 827 401 800T434 711V697Q434 636 402 609T309 581H302Q241 581 209 608T176 697V711Q176 773 208 800T302 827H309Z"/>
<glyph unicode="Ű" glyph-name="Uhungarumlaut" horiz-adv-x="741" d="M514 585H446V684H715V585H646V244Q646 178 630 133T582 55Q514 -14 375 -14Q301 -14 246 2T155 54Q125 84 110 128T94 241V585H26V684H313V585H244V242Q244 200 251 176T279 135Q296 120 321 113T379 105Q412 105 438 112T481 137Q514 168 514 240V585ZM180 814L302 991Q313 1007 325 1009T353 998L407 945L237 770L180 814ZM374 814L497 991Q509 1007 521 1009T547 998L600 945L432 770L374 814Z"/>
<glyph unicode="ű" glyph-name="uhungarumlaut" horiz-adv-x="611" d="M472 -4Q436 -4 418 6T394 38Q361 14 318 0T231 -14Q193 -14 165 -2T117 32Q98 53 89 83T80 151V397H18V485Q47 489 82 491T138 494Q185 494 202 477T219 419V170Q219 137 235 121Q245 112 261 109T298 106Q320 106 344 108T391 116V397H332V490H530V93H592V6Q577 4 561 2T528 -1T497 -3T472 -4ZM115 624L237 801Q248 817 260 819T288 808L342 755L172 580L115 624ZM309 624L432 801Q444 817 456 819T482 808L535 755L367 580L309 624Z"/>
<glyph unicode="Ų" glyph-name="Uogonek" horiz-adv-x="741" d="M273 -132Q273 -99 290 -69T335 -12Q275 -8 230 7T155 54Q125 84 110 128T94 241V585H26V684H313V585H244V242Q244 200 251 176T279 135Q296 120 321 113T379 105Q412 105 438 112T481 137Q514 168 514 240V585H446V684H715V585H646V244Q646 178 630 133T582 55Q528 1 430 -11Q401 -43 387 -69T373 -122Q373 -167 434 -167H490V-234Q467 -242 443 -245T398 -249Q344 -249 309 -220T273 -132Z"/>
<glyph unicode="ų" glyph-name="uogonek" horiz-adv-x="611" d="M394 38Q361 14 318 0T231 -14Q193 -14 165 -2T117 32Q98 53 89 83T80 151V397H18V485Q47 489 82 491T138 494Q185 494 202 477T219 419V170Q219 137 235 121Q245 112 261 109T298 106Q320 106 344 108T391 116V397H332V490H530V93H592V6Q531 -11 503 -44T475 -113Q475 -166 537 -166H592V-233Q569 -241 545 -244T500 -248Q446 -248 411 -219T375 -131Q375 -86 398 -54T454 -2Q431 0 416 10T394 38Z"/>
<glyph unicode="Ŵ" glyph-name="Wcircumflex" horiz-adv-x="1008" d="M945 585L785 0H663Q647 0 637 2T621 8T612 20T605 38L508 472L411 0H285Q269 0 259 2T243 8T234 20T227 38L67 585H0V684H131Q152 684 165 682T187 673T201 656T211 628L334 152L429 648Q434 670 443 677T477 684H587L712 141L826 585H767V684H1008V585H945ZM694 817L642 764L514 866L386 764L334 817L436 935Q451 953 464 960T503 967H525Q551 967 564 960T592 935L694 817Z"/>
<glyph unicode="ŵ" glyph-name="wcircumflex" horiz-adv-x="826" d="M424 361L348 0H238Q206 0 194 10T173 46L63 397H-5V485Q21 488 55 490T111 492Q154 492 172 479T198 436L276 129L334 444Q339 470 347 477T377 485H507L590 125L660 397H616V485H831V397H775L656 0H551Q519 0 505 10T485 46L424 361ZM603 627L551 574L423 676L295 574L243 627L345 745Q360 763 373 770T412 777H434Q460 777 473 770T501 745L603 627Z"/>
<glyph unicode="Ŷ" glyph-name="Ycircumflex" horiz-adv-x="652" d="M70 585H6V684H125Q146 684 159 682T181 673T197 657T212 632L344 389L458 585H405V684H646V585H583L397 278V99H466V0H179V99H247V279L70 585ZM506 817L454 764L326 866L198 764L146 817L248 935Q263 953 276 960T315 967H337Q363 967 376 960T404 935L506 817Z"/>
<glyph unicode="ŷ" glyph-name="ycircumflex" horiz-adv-x="596" d="M18 397V485Q47 489 82 491T138 494Q185 494 202 476T219 418V170Q219 137 235 121Q245 112 261 109T298 106Q320 106 344 108T391 116V397H332V490H530V-16Q530 -73 518 -114T479 -183Q425 -239 304 -239Q270 -239 229 -236T156 -224V-135H265Q335 -135 363 -110Q391 -85 391 -22V33Q358 11 316 -1T231 -14Q193 -14 165 -2T117 32Q98 53 89 83T80 151V397H18ZM478 627L426 574L298 676L170 574L118 627L220 745Q235 763 248 770T287 777H309Q335 777 348 770T376 745L478 627Z"/>
<glyph unicode="Ÿ" glyph-name="Ydieresis" horiz-adv-x="652" d="M70 585H6V684H125Q146 684 159 682T181 673T197 657T212 632L344 389L458 585H405V684H646V585H583L397 278V99H466V0H179V99H247V279L70 585ZM301 860Q301 825 283 809T230 793H224Q189 793 172 809T154 860V871Q154 907 171 922T224 938H230Q265 938 283 923T301 871V860ZM517 860Q517 825 500 809T447 793H441Q407 793 389 809T370 860V871Q370 907 388 922T441 938H447Q482 938 499 923T517 871V860Z"/>
<glyph unicode="Ź" glyph-name="Zacute" horiz-adv-x="611" d="M569 26Q569 12 564 6T541 0H49Q47 5 46 15T45 34Q45 64 52 89T79 143L392 585H165Q163 576 160 563T154 535T145 508T136 486H44V658Q44 672 49 678T72 684H563Q565 679 566 669T567 650Q567 620 561 596T533 541L225 99H452Q457 123 465 154T481 203H569V26ZM194 826L356 977Q386 1004 406 975L457 904L246 762L194 826Z"/>
<glyph unicode="ź" glyph-name="zacute" horiz-adv-x="518" d="M51 0Q49 5 49 13T48 29Q48 57 53 75T71 109L300 399H161Q159 376 155 356T145 326H48V460Q48 479 54 484T77 490H467Q469 485 470 477T471 461Q471 433 465 415T447 381L220 91H366Q368 114 372 138T382 171H478V30Q478 11 472 6T449 0H51ZM147 636L309 787Q339 814 359 785L410 714L199 572L147 636Z"/>
<glyph unicode="Ż" glyph-name="Zdotaccent" horiz-adv-x="611" d="M569 26Q569 12 564 6T541 0H49Q47 5 46 15T45 34Q45 64 52 89T79 143L392 585H165Q163 576 160 563T154 535T145 508T136 486H44V658Q44 672 49 678T72 684H563Q565 679 566 669T567 650Q567 620 561 596T533 541L225 99H452Q457 123 465 154T481 203H569V26ZM393 862Q393 824 374 808T318 791H312Q274 791 256 807T237 862V873Q237 912 255 928T312 944H318Q355 944 374 928T393 873V862Z"/>
<glyph unicode="ż" glyph-name="zdotaccent" horiz-adv-x="518" d="M51 0Q49 5 49 13T48 29Q48 57 53 75T71 109L300 399H161Q159 376 155 356T145 326H48V460Q48 479 54 484T77 490H467Q469 485 470 477T471 461Q471 433 465 415T447 381L220 91H366Q368 114 372 138T382 171H478V30Q478 11 472 6T449 0H51ZM347 672Q347 634 328 618T272 601H266Q228 601 210 617T191 672V683Q191 722 209 738T266 754H272Q309 754 328 738T347 683V672Z"/>
<glyph unicode="Ž" glyph-name="Zcaron" horiz-adv-x="611" d="M569 26Q569 12 564 6T541 0H49Q47 5 46 15T45 34Q45 64 52 89T79 143L392 585H165Q163 576 160 563T154 535T145 508T136 486H44V658Q44 672 49 678T72 684H563Q565 679 566 669T567 650Q567 620 561 596T533 541L225 99H452Q457 123 465 154T481 203H569V26ZM389 809Q374 791 361 784T322 777H300Q274 777 261 784T233 809L131 927L183 980L311 878L439 980L491 927L389 809Z"/>
<glyph unicode="ž" glyph-name="zcaron" horiz-adv-x="518" d="M51 0Q49 5 49 13T48 29Q48 57 53 75T71 109L300 399H161Q159 376 155 356T145 326H48V460Q48 479 54 484T77 490H467Q469 485 470 477T471 461Q471 433 465 415T447 381L220 91H366Q368 114 372 138T382 171H478V30Q478 11 472 6T449 0H51ZM335 619Q320 601 307 594T268 587H246Q220 587 207 594T179 619L77 737L129 790L257 688L385 790L437 737L335 619Z"/>
<glyph unicode="ſ" glyph-name="longs" horiz-adv-x="331" d="M232 0H93V397H10V479L93 491V557Q93 603 103 634T134 687Q154 708 185 720T268 732Q295 732 326 730T381 724V627H330Q295 627 277 624T248 611Q240 603 236 590T232 550V0Z"/>
<glyph unicode="ƒ" glyph-name="florin" horiz-adv-x="596" d="M368 -63Q368 -152 327 -194Q307 -214 275 -226T193 -239Q166 -239 135 -236T80 -230V-134H131Q166 -134 183 -131T212 -118Q221 -110 224 -97T228 -57V277H124V348L228 357V556Q228 645 269 687Q289 707 321 719T403 732Q430 732 461 729T516 723V627H465Q430 627 413 624T384 611Q375 603 372 590T368 550V358H495V277H368V-63Z"/>
<glyph unicode="Ǻ" glyph-name="Aringacute" horiz-adv-x="693" d="M410 99H470L437 198H214L182 99H245V0H2V99H60L267 684H379Q404 684 413 680T428 659L632 99H691V0H410V99ZM248 298H403L325 534L248 298ZM346 801Q373 801 386 813T399 855V859Q399 891 386 901T346 912H343Q315 912 302 902T288 859V855Q288 825 301 813T343 801H346ZM348 981Q408 981 440 954T473 865V851Q473 790 441 763T348 735H341Q280 735 248 762T215 851V865Q215 927 247 954T341 981H348ZM213 1075L375 1226Q405 1253 425 1224L476 1153L265 1011L213 1075Z"/>
<glyph unicode="ǻ" glyph-name="aringacute" horiz-adv-x="559" d="M340 211H259Q213 211 194 195Q178 181 178 153Q178 125 194 110T250 94Q271 94 296 97T340 106V211ZM422 -4Q390 -4 373 3T347 28Q318 8 282 -3T210 -14Q172 -14 140 -3T87 28Q40 72 40 147Q40 180 50 209T81 258Q107 283 150 293T261 303H340V333Q340 367 325 381Q314 390 298 393T254 397H94V485Q112 489 135 492T183 498T232 502T280 504Q328 504 368 494T435 461Q458 440 468 410T479 332V93H541V5Q527 3 511 2T478 -1T447 -3T422 -4ZM281 870Q308 870 321 882T334 924V928Q334 960 321 970T281 981H278Q250 981 237 971T223 928V924Q223 894 236 882T278 870H281ZM283 1050Q343 1050 375 1023T408 934V920Q408 859 376 832T283 804H276Q215 804 183 831T150 920V934Q150 996 182 1023T276 1050H283ZM148 885L310 1036Q340 1063 360 1034L411 963L200 821L148 885Z"/>
<glyph unicode="Ǽ" glyph-name="AEacute" horiz-adv-x="1007" d="M847 99Q847 109 849 123T853 150T859 176T866 195H963V18Q963 6 956 3T924 0H414V99H482V198H257L198 99H243V0H2V99H64L400 642Q414 665 426 674T461 684H919Q944 684 951 681T958 666V489H861Q858 496 855 508T849 533T844 561T842 585H632V400H824V294H632V99H847ZM482 298V574L318 298H482ZM560 826L722 977Q752 1004 772 975L823 904L612 762L560 826Z"/>
<glyph unicode="ǽ" glyph-name="aeacute" horiz-adv-x="833" d="M479 201Q481 180 487 160T508 125Q525 109 553 101T630 93H775V5Q740 -2 691 -8T593 -14Q529 -14 484 1T406 42Q367 15 319 1T213 -14Q128 -14 84 30T40 147Q40 180 50 209T81 258Q107 283 150 293T261 303H340V333Q340 367 325 381Q314 390 298 393T254 397H94V485Q112 489 135 492T183 498T232 502T280 504Q329 504 368 494T429 461Q454 480 490 492T571 504Q683 504 739 441T796 257V212Q796 201 786 201H479ZM250 94Q273 94 299 98T355 112Q346 134 341 159T333 211H259Q213 211 194 195Q178 181 178 153Q178 125 194 110T250 94ZM660 294Q658 341 637 368T570 396Q524 396 503 369T479 294H660ZM331 636L493 787Q523 814 543 785L594 714L383 572L331 636Z"/>
<glyph unicode="Ǿ" glyph-name="Oslashacute" horiz-adv-x="686" d="M501 661Q573 622 608 542T644 341Q644 167 570 77T343 -14Q297 -14 260 -5L235 -74H152L186 20Q113 59 78 139T42 341Q42 515 116 606T343 697Q366 697 387 695T428 688L453 757H536L501 661ZM197 341Q197 211 235 155L386 573Q366 579 343 579Q266 579 232 522T197 341ZM489 341Q489 467 452 525L301 109Q323 104 343 104Q420 104 454 160T489 341ZM211 826L373 977Q403 1004 423 975L474 904L263 762L211 826Z"/>
<glyph unicode="ǿ" glyph-name="oslashacute" horiz-adv-x="560" d="M527 245Q527 186 512 138T467 57T390 5T280 -14Q265 -14 252 -13T225 -10L202 -74H133L162 7Q96 36 65 97T33 245Q33 304 48 352T93 433T170 485T280 504Q296 504 311 503T340 499L364 564H433L402 480Q466 451 496 391T527 245ZM178 245Q178 162 205 126L302 393Q297 394 292 394T280 395Q225 395 202 358T178 245ZM382 245Q382 283 377 311T358 358L263 96Q268 95 271 95T280 95Q335 95 358 132T382 245ZM148 636L310 787Q340 814 360 785L411 714L200 572L148 636Z"/>
<glyph unicode="Ș" glyph-name="Scommaaccent" horiz-adv-x="597" d="M48 496Q48 541 61 574T100 633Q132 664 183 680T305 697Q330 697 356 695T406 689T452 681T487 671Q504 665 508 659T513 637V497H412Q406 510 401 535T393 580Q354 586 306 586Q276 586 251 581T209 561Q188 543 188 509Q188 474 211 457T287 422L365 399Q416 384 451 366T509 321Q550 274 550 195Q550 151 537 115T497 53Q465 20 412 3T280 -14Q255 -14 229 -13T177 -8T130 -1T92 7Q72 12 67 21T61 47V189H166Q172 177 177 152T185 108Q199 103 228 101T285 98Q357 98 387 125Q410 145 410 182Q410 216 390 233T324 265L234 291Q188 305 154 321T97 359Q74 382 61 416T48 496ZM224 -151Q224 -118 241 -99T294 -80H301Q335 -80 353 -99T372 -153V-178Q372 -224 369 -265T357 -330Q349 -353 320 -353H283V-226Q252 -215 238 -198T224 -152V-151Z"/>
<glyph unicode="ș" glyph-name="scommaaccent" horiz-adv-x="523" d="M158 154Q161 145 164 134Q166 125 168 114T173 92Q212 86 257 86Q308 86 330 97T352 136Q352 157 338 166T291 181L210 194Q162 202 133 214T87 243Q52 278 52 343Q52 380 64 406T96 453Q125 481 172 492T274 504Q317 504 361 499T433 486Q447 482 451 476T455 458V335H359Q353 348 349 367T343 401Q327 403 307 403T266 404Q183 404 183 357Q183 336 196 325T249 308L326 296Q375 288 402 277T448 247Q483 210 483 147Q483 70 426 28T260 -14Q197 -14 151 -10T81 3Q67 8 64 16T61 35V154H158ZM193 -151Q193 -118 210 -99T263 -80H270Q304 -80 322 -99T341 -153V-178Q341 -224 338 -265T326 -330Q318 -353 289 -353H252V-226Q221 -215 207 -198T193 -152V-151Z"/>
<glyph unicode="Ț" glyph-name="uni021A" horiz-adv-x="674" d="M607 684Q632 684 639 681T646 666V486H549Q546 493 543 505T537 532T532 560T530 585H412V99H480V0H194V99H262V585H144Q144 575 142 561T138 532T132 506T125 486H28V666Q28 678 35 681T67 684H607ZM263 -151Q263 -118 280 -99T333 -80H340Q374 -80 392 -99T411 -153V-178Q411 -224 408 -265T396 -330Q388 -353 359 -353H322V-226Q291 -215 277 -198T263 -152V-151Z"/>
<glyph unicode="ț" glyph-name="uni021B" horiz-adv-x="382" d="M2 479L85 491V599Q117 609 154 614T224 620V490H340V397H224V168Q224 147 226 133T235 110T256 97T294 93H364V2Q352 -2 336 -5T303 -10T267 -13T232 -14Q151 -14 118 26T85 148V397H2V479ZM150 -151Q150 -118 167 -99T220 -80H227Q261 -80 279 -99T298 -153V-178Q298 -224 295 -265T283 -330Q275 -353 246 -353H209V-226Q178 -215 164 -198T150 -152V-151Z"/>
<glyph unicode="ˆ" glyph-name="circumflex" horiz-adv-x="446" d="M403 627L351 574L223 676L95 574L43 627L145 745Q160 763 173 770T212 777H234Q260 777 273 770T301 745L403 627Z"/>
<glyph unicode="ˇ" glyph-name="caron" horiz-adv-x="446" d="M301 619Q286 601 273 594T234 587H212Q186 587 173 594T145 619L43 737L95 790L223 688L351 790L403 737L301 619Z"/>
<glyph unicode="˘" glyph-name="breve" horiz-adv-x="446" d="M146 757Q151 719 169 699T223 678Q259 678 277 698T300 757L389 754Q389 721 381 691T354 638T302 602T223 588Q176 588 144 601T93 638T65 691T56 754L146 757V757Z"/>
<glyph unicode="˙" glyph-name="dotaccent" horiz-adv-x="446" d="M301 672Q301 634 282 618T226 601H220Q182 601 164 617T145 672V683Q145 722 163 738T220 754H226Q263 754 282 738T301 683V672Z"/>
<glyph unicode="˚" glyph-name="ring" horiz-adv-x="446" d="M225 647Q252 647 265 659T278 701V705Q278 737 265 747T225 758H222Q194 758 181 748T167 705V701Q167 671 180 659T222 647H225ZM227 827Q287 827 319 800T352 711V697Q352 636 320 609T227 581H220Q159 581 127 608T94 697V711Q94 773 126 800T220 827H227Z"/>
<glyph unicode="˛" glyph-name="ogonek" horiz-adv-x="428" d="M105 -132Q105 -90 132 -52T201 15H287Q245 -28 225 -60T205 -122Q205 -167 266 -167H322V-234Q299 -242 275 -245T230 -249Q176 -249 141 -220T105 -132Z"/>
<glyph unicode="˜" glyph-name="tilde" horiz-adv-x="446" d="M413 743Q413 674 384 637T303 600Q280 600 260 607T220 622T184 637T150 644Q116 644 107 596L33 607Q33 676 62 713T143 750Q166 750 186 743T226 728T262 713T296 706Q330 706 339 754L413 743Z"/>
<glyph unicode="˝" glyph-name="hungarumlaut" horiz-adv-x="446" d="M13 624L135 801Q146 817 158 819T186 808L240 755L70 580L13 624ZM207 624L330 801Q342 817 354 819T380 808L433 755L265 580L207 624Z"/>
<glyph unicode="Δ" glyph-name="Delta" horiz-adv-x="679" d="M51 76Q51 90 52 98T60 124L260 684H372Q397 684 406 680T421 659L614 127Q619 113 622 100T625 69V0H51V76ZM318 526L175 99H463L318 526Z"/>
<glyph unicode="Ω" glyph-name="Omega" horiz-adv-x="728" d="M397 65Q397 72 398 78T402 91T410 104T423 121Q471 178 494 238T517 374Q517 474 479 525T364 577Q287 577 249 526T211 374Q211 299 234 239T305 121Q321 101 326 91T331 65V0H70V99H185Q116 150 86 225T56 383Q56 453 76 510T135 609T231 674T364 697Q439 697 496 674T593 610T652 511T672 383Q672 300 642 225T543 99H658V0H397V65Z"/>
<glyph unicode="π" glyph-name="pi" horiz-adv-x="658" d="M607 93V5Q578 1 543 -2T487 -5Q439 -5 423 13T406 72V397H231V0H92V397H13V490H624V397H545V93H607Z"/>
<glyph unicode="Ẁ" glyph-name="Wgrave" horiz-adv-x="1008" d="M945 585L785 0H663Q647 0 637 2T621 8T612 20T605 38L508 472L411 0H285Q269 0 259 2T243 8T234 20T227 38L67 585H0V684H131Q152 684 165 682T187 673T201 656T211 628L334 152L429 648Q434 670 443 677T477 684H587L712 141L826 585H767V684H1008V585H945ZM593 762L382 904L433 975Q453 1004 483 977L645 826L593 762Z"/>
<glyph unicode="ẁ" glyph-name="wgrave" horiz-adv-x="826" d="M424 361L348 0H238Q206 0 194 10T173 46L63 397H-5V485Q21 488 55 490T111 492Q154 492 172 479T198 436L276 129L334 444Q339 470 347 477T377 485H507L590 125L660 397H616V485H831V397H775L656 0H551Q519 0 505 10T485 46L424 361ZM502 572L291 714L342 785Q362 814 392 787L554 636L502 572Z"/>
<glyph unicode="Ẃ" glyph-name="Wacute" horiz-adv-x="1008" d="M945 585L785 0H663Q647 0 637 2T621 8T612 20T605 38L508 472L411 0H285Q269 0 259 2T243 8T234 20T227 38L67 585H0V684H131Q152 684 165 682T187 673T201 656T211 628L334 152L429 648Q434 670 443 677T477 684H587L712 141L826 585H767V684H1008V585H945ZM392 826L554 977Q584 1004 604 975L655 904L444 762L392 826Z"/>
<glyph unicode="ẃ" glyph-name="wacute" horiz-adv-x="826" d="M424 361L348 0H238Q206 0 194 10T173 46L63 397H-5V485Q21 488 55 490T111 492Q154 492 172 479T198 436L276 129L334 444Q339 470 347 477T377 485H507L590 125L660 397H616V485H831V397H775L656 0H551Q519 0 505 10T485 46L424 361ZM291 636L453 787Q483 814 503 785L554 714L343 572L291 636Z"/>
<glyph unicode="Ẅ" glyph-name="Wdieresis" horiz-adv-x="1008" d="M945 585L785 0H663Q647 0 637 2T621 8T612 20T605 38L508 472L411 0H285Q269 0 259 2T243 8T234 20T227 38L67 585H0V684H131Q152 684 165 682T187 673T201 656T211 628L334 152L429 648Q434 670 443 677T477 684H587L712 141L826 585H767V684H1008V585H945ZM479 860Q479 825 461 809T408 793H402Q367 793 350 809T332 860V871Q332 907 349 922T402 938H408Q443 938 461 923T479 871V860ZM695 860Q695 825 678 809T625 793H619Q585 793 567 809T548 860V871Q548 907 566 922T619 938H625Q660 938 677 923T695 871V860Z"/>
<glyph unicode="ẅ" glyph-name="wdieresis" horiz-adv-x="826" d="M424 361L348 0H238Q206 0 194 10T173 46L63 397H-5V485Q21 488 55 490T111 492Q154 492 172 479T198 436L276 129L334 444Q339 470 347 477T377 485H507L590 125L660 397H616V485H831V397H775L656 0H551Q519 0 505 10T485 46L424 361ZM388 670Q388 635 370 619T317 603H311Q276 603 259 619T241 670V681Q241 717 258 732T311 748H317Q352 748 370 733T388 681V670ZM604 670Q604 635 587 619T534 603H528Q494 603 476 619T457 670V681Q457 717 475 732T528 748H534Q569 748 586 733T604 681V670Z"/>
<glyph unicode="Ỳ" glyph-name="Ygrave" horiz-adv-x="652" d="M70 585H6V684H125Q146 684 159 682T181 673T197 657T212 632L344 389L458 585H405V684H646V585H583L397 278V99H466V0H179V99H247V279L70 585ZM385 762L174 904L225 975Q245 1004 275 977L437 826L385 762Z"/>
<glyph unicode="ỳ" glyph-name="ygrave" horiz-adv-x="596" d="M18 397V485Q47 489 82 491T138 494Q185 494 202 476T219 418V170Q219 137 235 121Q245 112 261 109T298 106Q320 106 344 108T391 116V397H332V490H530V-16Q530 -73 518 -114T479 -183Q425 -239 304 -239Q270 -239 229 -236T156 -224V-135H265Q335 -135 363 -110Q391 -85 391 -22V33Q358 11 316 -1T231 -14Q193 -14 165 -2T117 32Q98 53 89 83T80 151V397H18ZM367 572L156 714L207 785Q227 814 257 787L419 636L367 572Z"/>
<glyph unicode="–" glyph-name="endash" horiz-adv-x="500" d="M0 200V319H500V200H0Z"/>
<glyph unicode="—" glyph-name="emdash" horiz-adv-x="1000" d="M0 200V319H1000V200H0Z"/>
<glyph unicode="‘" glyph-name="quoteleft" horiz-adv-x="231" d="M197 477Q197 441 179 422T124 402H117Q81 402 62 420T42 477V504Q42 557 45 602T58 673Q65 697 97 697H138V555Q171 544 184 527T197 478V477Z"/>
<glyph unicode="’" glyph-name="quoteright" horiz-adv-x="231" d="M34 622Q34 658 52 677T107 697H114Q150 697 169 679T189 622V595Q189 542 186 497T173 426Q169 414 160 408T134 402H93V544Q60 555 47 572T34 621V622Z"/>
<glyph unicode="‚" glyph-name="quotesinglbase" horiz-adv-x="231" d="M34 44Q34 80 52 99T107 119H114Q188 119 188 44V17Q188 -36 185 -81T172 -152Q168 -164 159 -170T133 -176H93V-34Q60 -23 47 -6T34 43V44Z"/>
<glyph unicode="“" glyph-name="quotedblleft" horiz-adv-x="436" d="M402 477Q402 441 384 422T329 402H321Q247 402 247 477V504Q247 557 250 602T263 673Q270 697 301 697H343V555Q376 544 389 527T402 478V477ZM197 477Q197 441 179 422T125 402H117Q81 402 62 420T42 477V504Q42 557 46 602T58 673Q63 685 71 691T97 697H139V555Q171 544 184 527T197 478V477Z"/>
<glyph unicode="”" glyph-name="quotedblright" horiz-adv-x="436" d="M34 622Q34 658 52 677T107 697H115Q189 697 189 622V595Q189 542 186 497T173 426Q169 414 161 408T135 402H93V544Q60 555 47 572T34 621V622ZM239 622Q239 658 257 677T311 697H319Q355 697 374 679T394 622V595Q394 542 390 497T378 426Q373 414 365 408T339 402H297V544Q265 555 252 572T239 621V622Z"/>
<glyph unicode="„" glyph-name="quotedblbase" horiz-adv-x="436" d="M34 44Q34 80 52 99T107 119H115Q188 119 188 44V17Q188 -36 185 -81T172 -152Q168 -164 160 -170T134 -176H93V-34Q60 -23 47 -6T34 43V44ZM239 44Q239 80 257 99T311 119H319Q393 119 393 44V17Q393 -36 389 -81T377 -152Q372 -164 364 -170T338 -176H297V-34Q265 -23 252 -6T239 43V44Z"/>
<glyph unicode="†" glyph-name="dagger" horiz-adv-x="561" d="M346 -225H214L229 351L42 342V472L230 457L211 684H351L332 457L519 466V336L331 351L346 -225Z"/>
<glyph unicode="‡" glyph-name="daggerdbl" horiz-adv-x="562" d="M519 114V-15L331 0L348 -225H210L229 0L42 -8V121L230 106V351L43 343V472L231 457L213 684H352L333 457L520 465V336L332 351V106L519 114Z"/>
<glyph unicode="•" glyph-name="bullet" horiz-adv-x="377" d="M335 329Q335 258 300 229T195 199H182Q113 199 78 228T42 329V354Q42 425 77 454T182 484H195Q264 484 299 455T335 354V329Z"/>
<glyph unicode="…" glyph-name="ellipsis" horiz-adv-x="715" d="M195 55Q195 17 177 2T123 -14H115Q79 -14 61 1T42 55V67Q42 105 60 120T115 136H123Q159 136 177 121T195 67V55ZM434 55Q434 17 416 2T361 -14H354Q318 -14 300 1T281 55V67Q281 105 299 120T354 136H361Q397 136 415 121T434 67V55ZM673 55Q673 17 655 2T600 -14H592Q556 -14 538 1T520 55V67Q520 105 538 120T592 136H600Q636 136 654 121T673 67V55Z"/>
<glyph unicode="‰" glyph-name="perthousand" horiz-adv-x="1403" d="M379 -14H256L621 697H744L379 -14ZM409 489Q409 388 365 334T229 280Q138 280 94 334T50 489Q50 589 94 643T229 697Q320 697 364 643T409 489ZM292 489Q292 543 279 572T229 602Q192 602 180 573T167 489Q167 434 179 405T229 375Q266 375 279 404T292 489ZM950 194Q950 94 906 40T771 -14Q680 -14 636 40T592 194Q592 295 636 349T771 403Q861 403 905 349T950 194ZM834 194Q834 249 821 278T771 308Q733 308 721 279T708 194Q708 140 720 111T771 81Q808 81 821 110T834 194ZM1353 194Q1353 94 1309 40T1173 -14Q1082 -14 1038 40T994 194Q994 295 1038 349T1173 403Q1264 403 1308 349T1353 194ZM1236 194Q1236 249 1223 278T1173 308Q1136 308 1124 279T1111 194Q1111 140 1123 111T1173 81Q1210 81 1223 110T1236 194Z"/>
<glyph unicode="‹" glyph-name="guilsinglleft" horiz-adv-x="333" d="M36 261Q36 280 45 294T72 328L220 489L287 433L170 261L287 89L220 33L72 194Q55 213 46 227T36 261Z"/>
<glyph unicode="›" glyph-name="guilsinglright" horiz-adv-x="333" d="M297 261Q297 242 288 228T261 194L113 33L46 89L163 261L46 433L113 489L261 328Q278 309 287 295T297 261Z"/>
<glyph unicode="⁄" glyph-name="fraction" horiz-adv-x="480" d="M119 -14H-4L361 697H484L119 -14Z"/>
<glyph unicode="€" glyph-name="Euro" horiz-adv-x="657" d="M125 300Q124 310 124 320T124 342V350H53V419L128 429Q134 490 155 539T213 624T302 678T421 697Q460 697 500 692T569 678Q585 673 591 666T597 642V504H492Q485 516 480 540T473 584Q464 585 450 585T423 586Q354 586 321 546T280 429H443V350H276V345Q276 333 276 322T277 300H443V222H286Q293 196 303 176T328 142Q371 101 465 101H588V3Q552 -5 512 -9T434 -14Q299 -14 227 47T133 222H53V290L125 300Z"/>
<glyph unicode="ℓ" glyph-name="litre" horiz-adv-x="275" d="M211 0H72V627H6V714Q21 716 38 717T71 720T103 723T129 724Q177 724 194 707T211 649V0Z"/>
<glyph unicode="№" glyph-name="numero" horiz-adv-x="1183" d="M1162 419Q1162 331 1110 280T963 229Q868 229 816 280T764 419Q764 507 816 558T963 609Q1058 609 1110 558T1162 419ZM1039 419Q1039 467 1017 488T963 509Q931 509 909 488T887 419Q887 371 909 350T963 329Q995 329 1017 350T1039 419ZM559 225V585H491V684H751V585H682V0H568L242 437V99H310V0H50V99H119V585H50V684H172Q187 684 197 683T214 678T228 668T241 653L559 225Z"/>
<glyph unicode="™" glyph-name="trademark" horiz-adv-x="782" d="M754 684V626H720V410H753V352H608V410H641V519L589 438H542Q531 438 526 441T516 452L475 523V410H506V352H367V410H400V626H366V684H432Q448 684 456 679T473 660L560 509L648 660Q656 674 664 679T690 684H754ZM307 684Q323 684 329 681T335 665V571H271Q270 576 269 594T266 626H222V410H256V352H100V410H133V626H90Q88 613 87 595T84 571H21V665Q21 678 26 681T49 684H307Z"/>
<glyph unicode="Ω" glyph-name="Omega" horiz-adv-x="728" d="M397 65Q397 72 398 78T402 91T410 104T423 121Q471 178 494 238T517 374Q517 474 479 525T364 577Q287 577 249 526T211 374Q211 299 234 239T305 121Q321 101 326 91T331 65V0H70V99H185Q116 150 86 225T56 383Q56 453 76 510T135 609T231 674T364 697Q439 697 496 674T593 610T652 511T672 383Q672 300 642 225T543 99H658V0H397V65Z"/>
<glyph unicode="℮" glyph-name="estimated" horiz-adv-x="894" d="M202 333Q195 333 195 327V133Q195 126 198 121T206 110Q251 63 314 36T449 8Q527 8 592 39T703 124H762Q706 61 625 24T448 -14Q366 -14 294 14T167 90T82 202T50 341Q50 415 81 480T167 593T293 669T448 697Q529 697 601 669T727 593T812 480T844 341V333H202ZM699 554Q699 566 687 578Q641 624 580 650T449 676Q377 676 315 650T206 575Q195 562 195 549V358Q195 352 202 352H692Q699 352 699 358V554Z"/>
<glyph unicode="∂" glyph-name="partialdiff" horiz-adv-x="600" d="M390 320Q369 325 341 327T290 330Q263 330 244 325T213 308T196 274T191 220Q191 95 286 95Q345 95 367 139T390 282V320ZM388 403Q386 455 377 490T345 549Q325 569 294 577T212 585H103V678Q128 686 168 691T246 697Q314 697 362 682T445 631Q490 586 514 508T538 310Q538 232 525 172T483 71T406 8T289 -14Q169 -14 108 47T47 225Q47 331 97 384T240 438Q275 438 314 430T388 403Z"/>
<glyph unicode="∆" glyph-name="Delta" horiz-adv-x="679" d="M51 76Q51 90 52 98T60 124L260 684H372Q397 684 406 680T421 659L614 127Q619 113 622 100T625 69V0H51V76ZM318 526L175 99H463L318 526Z"/>
<glyph unicode="∏" glyph-name="product" horiz-adv-x="746" d="M704 585H624V-225H475V585H271V-225H122V585H42V684H704V585Z"/>
<glyph unicode="∑" glyph-name="summation" horiz-adv-x="680" d="M78 -225Q64 -225 60 -215T56 -171Q56 -147 59 -135T74 -108L332 214Q337 221 338 225T335 234L72 567Q61 581 58 593T54 630V635Q54 665 58 674T76 684H564Q589 684 596 681T603 666V488H500Q499 493 498 504T495 530T493 559T492 585H225L421 330Q444 298 453 277T462 236Q462 213 452 193T421 148L213 -114H501Q501 -102 502 -89T504 -64T506 -43T509 -29H611V-207Q611 -219 605 -222T573 -225H78Z"/>
<glyph unicode="−" glyph-name="minus" horiz-adv-x="535" d="M81 277V371H455V277H81Z"/>
<glyph unicode="√" glyph-name="radical" horiz-adv-x="699" d="M73 397V490H251Q261 490 265 488T272 476L382 134L562 730H690L454 0H354Q324 0 308 10T281 50L153 397H73Z"/>
<glyph unicode="∞" glyph-name="infinity" horiz-adv-x="690" d="M467 141Q423 141 391 159T340 212Q316 180 285 161T212 141Q179 141 150 154T100 193T67 255T54 339Q54 384 66 421T100 485T154 526T224 541Q306 541 349 469Q373 501 405 521T478 541Q511 541 540 528T590 489T623 426T636 342Q636 297 624 260T590 197T536 156T467 141ZM218 414Q191 414 178 393T164 336Q164 301 180 281T223 260Q261 260 299 302Q277 359 261 386T218 414ZM472 267Q499 267 512 289T526 345Q526 380 510 400T467 421Q447 421 429 412T391 380Q413 323 429 295T472 267Z"/>
<glyph unicode="∫" glyph-name="integral'" horiz-adv-x="596" d="M368 -63Q368 -152 327 -194Q307 -214 275 -226T193 -239Q166 -239 135 -236T80 -230V-134H131Q166 -134 183 -131T212 -118Q221 -110 224 -97T228 -57V556Q228 645 269 687Q289 707 321 719T403 732Q430 732 461 729T516 723V626H465Q430 626 413 623T384 610Q375 602 372 589T368 549V-63Z"/>
<glyph unicode="≈" glyph-name="approxequal" horiz-adv-x="535" d="M443 489Q443 429 418 398T347 367Q327 367 306 373T264 386T225 400T192 406Q161 406 154 364L90 374Q90 433 115 463T186 494Q205 494 227 488T270 476T309 463T341 457Q371 457 379 498L443 489ZM443 298Q443 238 418 207T347 176Q327 176 306 182T264 195T225 208T192 214Q161 214 154 172L90 182Q90 241 115 272T186 303Q205 303 227 297T270 284T309 271T341 265Q371 265 379 306L443 298Z"/>
<glyph unicode="≠" glyph-name="notequal" horiz-adv-x="535" d="M328 373L295 275H455V181H263L217 47H122L168 181H81V275H201L234 373H81V467H267L313 601H407L361 467H455V373H328Z"/>
<glyph unicode="≤" glyph-name="lessequal" horiz-adv-x="535" d="M81 0V94H455V0H81ZM81 332V424L455 609V503L186 379L455 259V147L81 332Z"/>
<glyph unicode="≥" glyph-name="greaterequal" horiz-adv-x="535" d="M81 147V259L350 379L81 503V609L455 424V332L81 147ZM81 0V94H455V0H81Z"/>
<glyph unicode="◊" glyph-name="lozenge" horiz-adv-x="655" d="M596 343Q596 324 590 308T571 269L402 0H253L84 269Q71 291 65 307T59 343Q59 360 65 376T84 415L253 684H402L571 415Q584 393 590 377T596 343ZM327 562L188 342L327 122L467 342L327 562Z"/>
<glyph unicode="" glyph-name="" horiz-adv-x="599" d="M242 210V277H447V346H242V549H513V481H311V414H513V210H242ZM175 618V68H250V0H107V684H513V618H175Z"/>
<glyph unicode="ﬁ" glyph-name="fi" horiz-adv-x="645" d="M232 397V0H93V397H9V484L93 489V567Q93 613 103 644T133 697Q153 718 185 730T267 742Q291 742 321 740T374 734V637H329Q294 637 277 634T248 621Q239 613 236 600T232 560V490H504Q528 490 542 486T563 472T573 450T575 420V0H436V397H232ZM584 648Q584 611 566 596T511 580H504Q467 580 449 595T431 648V661Q431 698 449 713T504 729H511Q547 729 565 714T584 661V648Z"/>
<glyph unicode="ﬂ" glyph-name="fl" horiz-adv-x="629" d="M564 0H425V637H329Q294 637 276 634T247 621Q239 613 235 600T231 560V490H348V397H231V0H92V397H9V484L92 489V563Q92 609 102 639T134 692Q160 719 206 730T327 742Q373 742 416 740T497 734Q516 732 529 729T549 718T560 697T564 663V0Z"/>
</font>
</defs>
</svg>
